<svg width="35" height="35" viewBox="0 0 35 35" fill="none" xmlns="http://www.w3.org/2000/svg">
<g opacity="0.7" clip-path="url(#clip0_24_821)">
<circle cx="17.296" cy="17.4154" r="16.7853" fill="#3E4549"/>
<path fill-rule="evenodd" clip-rule="evenodd" d="M13.2049 13.1139V15.3169H12.2607C11.5652 15.3169 11.0018 15.8803 11.0018 16.5758V22.8703C11.0018 23.5658 11.5652 24.1291 12.2607 24.1291H22.3317C23.0272 24.1291 23.5907 23.5658 23.5907 22.8703V16.5758C23.5907 15.8803 23.0272 15.3169 22.3317 15.3169H21.3877V13.1139C21.3877 10.8543 19.5558 9.02258 17.2963 9.02258C15.0367 9.02258 13.2049 10.8543 13.2049 13.1139ZM14.7782 15.3193V13.1154C14.7782 11.7238 15.9053 10.5966 17.2969 10.5966C18.6886 10.5966 19.8158 11.7238 19.8158 13.1154V15.3193H14.7782ZM16.0387 18.7799C16.0387 18.0843 16.6021 17.5209 17.2977 17.5209C17.9934 17.5209 18.5568 18.0843 18.5568 18.7799C18.5568 19.2238 18.3269 19.6142 17.9808 19.8376C17.9808 19.8376 18.1038 20.5806 18.2421 21.4555C18.2421 21.7167 18.0312 21.9276 17.7699 21.9276H16.8255C16.5643 21.9276 16.3534 21.7167 16.3534 21.4555L16.6147 19.8376C16.2686 19.6142 16.0387 19.2238 16.0387 18.7799Z" fill="white"/>
</g>
<defs>
<clipPath id="clip0_24_821">
<rect width="33.5706" height="33.5706" fill="white" transform="translate(0.510681 0.630127)"/>
</clipPath>
</defs>
</svg>
