<svg width="35" height="35" viewBox="0 0 35 35" fill="none" xmlns="http://www.w3.org/2000/svg">
<g opacity="0.7" clip-path="url(#clip0_24_827)">
<circle cx="17.7674" cy="17.4154" r="16.7853" fill="url(#paint0_linear_24_827)"/>
<path fill-rule="evenodd" clip-rule="evenodd" d="M12.7324 25.1786H22.8034C23.4989 25.1786 24.0624 24.6153 24.0624 23.9198V17.6254C24.0624 16.9298 23.4989 16.3665 22.8034 16.3665H15.2502V14.1635C15.2502 12.7725 16.3769 11.6457 17.7679 11.6457C19.159 11.6457 20.2857 11.7234 20.2857 13.1144V13.2717C20.2857 13.706 20.6382 14.0586 21.0724 14.0586C21.5067 14.0586 21.8593 13.706 21.8593 13.2717V13.1144C21.8593 10.8548 20.0275 10.0721 17.768 10.0721C15.508 10.0721 13.6766 11.9039 13.6766 14.1635V16.3665H12.7325C12.0369 16.3665 11.4735 16.9298 11.4735 17.6254V23.9198C11.4735 24.6153 12.0369 25.1786 12.7324 25.1786ZM16.5098 19.8289C16.5098 19.1333 17.0732 18.5699 17.7689 18.5699C18.4646 18.5699 19.028 19.1333 19.028 19.8289C19.028 20.2728 18.7981 20.6631 18.452 20.8866C18.452 20.8866 18.575 21.6296 18.7133 22.5045C18.7133 22.7656 18.5024 22.9765 18.2411 22.9765H17.2967C17.0354 22.9765 16.8246 22.7656 16.8246 22.5045L17.0859 20.8866C16.7397 20.6631 16.5098 20.2727 16.5098 19.8289Z" fill="#333B3E"/>
</g>
<defs>
<linearGradient id="paint0_linear_24_827" x1="10.3431" y1="-17.0707" x2="42.8748" y2="-10.4904" gradientUnits="userSpaceOnUse">
<stop stop-color="#19E1F2"/>
<stop offset="1" stop-color="#6CE7DD"/>
</linearGradient>
<clipPath id="clip0_24_827">
<rect width="33.5706" height="33.5706" fill="white" transform="translate(0.982101 0.630127)"/>
</clipPath>
</defs>
</svg>
