<svg width="259" height="66" viewBox="0 0 259 66" fill="none" xmlns="http://www.w3.org/2000/svg">
<path d="M5.74438 21.9071C5.74438 20.4857 6.37968 19.1388 7.47645 18.2347L20.851 7.21051C21.7033 6.50798 22.7734 6.12378 23.878 6.12378H126.742H248.456C251.084 6.12378 253.215 8.25448 253.215 10.8828V43.0928C253.215 44.5418 252.555 45.9119 251.421 46.8148L238.091 57.4362C237.249 58.1076 236.203 58.4733 235.126 58.4733H132.217H10.5034C7.87508 58.4733 5.74438 56.3426 5.74438 53.7142V21.9071Z" fill="url(#paint0_linear_24_1135)"/>
<path d="M90.5792 37.0692L92.2392 35.4093V32.1807L90.5792 30.5208H86.97V28.8456H89.1629V29.8507H92.1174V28.0689L90.4574 26.409H85.6755L84.0156 28.0689V31.2974L85.6755 32.9574H89.2848V34.6326H86.9547V33.6427H84.0003V35.4093L85.6603 37.0692H90.5792ZM97.2628 37.0692V31.8609L97.7654 31.4345H99.3949V37.0692H102.349V30.3532L100.689 28.6933H98.2375L97.2628 29.6679V25.6475H94.3084V37.0692H97.2628ZM106.08 28.6933L104.42 30.3532V35.4093L106.08 37.0692H110.801L112.46 35.4093V30.3532L110.801 28.6933H106.08ZM109.506 34.4194H107.374V31.3431H109.506V34.4194ZM119.377 37.0692L120.519 33.064L121.662 37.0692H124.875L127.037 30.5208V28.6933H124.083V30.0639L123.047 33.8711L121.997 30.0639V28.6933H119.042V30.0639L117.991 33.8711L116.956 30.0639V28.6933H114.001V30.5208L116.164 37.0692H119.377ZM135.142 37.0692V31.7391L135.492 31.4345H137.274V37.0692H140.228V31.4345H142.299V37.0692H145.254V30.3532L143.594 28.6933H140.548L139.634 29.607L138.721 28.6933H135.812L134.776 29.7289V28.6933H132.187V37.0692H135.142ZM147.356 37.2063V38.6073L149.016 40.2673H153.645L155.305 38.6073V28.6933H152.351V33.9625H150.28V28.6933H147.325V34.8001L148.985 36.4601H152.351V37.8307H150.158V37.2063H147.356ZM165.908 34.4194H164.02V31.3431H165.908V32.3482H168.741V30.3532L167.081 28.6933H162.787L161.127 30.3532V35.4093L162.787 37.0692H167.081L168.741 35.4093V33.4143H165.908V34.4194ZM178.245 30.3532L176.585 28.6933H172.306L170.646 30.3532V31.6477H173.418V31.1908H175.413V32.2264H172.169L170.509 33.8864V35.4093L172.169 37.0692H174.758L175.793 36.0336V37.0692H178.245V30.3532ZM175.413 33.6579V34.5412L175.063 34.8153H173.342V33.6579H175.413ZM183.357 37.0692V31.8305L183.707 31.5259H186.007V28.6933H184.179L182.991 29.8812V28.6933H180.403V37.0692H183.357ZM192.228 34.9676H190.141V34.3432H187.4V35.4093L189.06 37.0692H193.492L195.152 35.4093V33.1097L190.324 31.2822V30.7949H192.258V31.4193H194.999V30.3532L193.339 28.6933H189.06L187.4 30.3532V32.6528L192.228 34.4803V34.9676Z" fill="#1A224B"/>
<rect id="plus-line-1" width="2.85543" height="12.3735" transform="matrix(0.906556 -0.422086 0.422103 0.906548 66.2202 27.1533)" fill="#19E1F2"/>
<rect id="plus-line-2" width="2.85543" height="12.3735" transform="matrix(0.422103 0.906548 -0.906556 0.422086 75.1315 28.2538)" fill="#19E1F2"/>
<rect opacity="0.4" x="0.0336304" y="44.1964" width="0.951809" height="19.988" fill="url(#paint1_linear_24_1135)"/>
<rect opacity="0.4" x="258.926" y="21.3529" width="0.951809" height="19.988" transform="rotate(180 258.926 21.3529)" fill="url(#paint2_linear_24_1135)"/>
<rect opacity="0.4" x="0.0336304" y="65.1362" width="0.951808" height="19.988" transform="rotate(-90 0.0336304 65.1362)" fill="url(#paint3_linear_24_1135)"/>
<rect opacity="0.4" x="258.926" y="0.413208" width="0.951808" height="19.988" transform="rotate(90 258.926 0.413208)" fill="url(#paint4_linear_24_1135)"/>
<defs>
<linearGradient id="paint0_linear_24_1135" x1="74.7505" y1="-21.4787" x2="205.148" y2="103.208" gradientUnits="userSpaceOnUse">
<stop stop-color="#19E1F2"/>
<stop offset="1" stop-color="#6CE7DD"/>
</linearGradient>
<linearGradient id="paint1_linear_24_1135" x1="0.414775" y1="38.3379" x2="1.12226" y2="38.3466" gradientUnits="userSpaceOnUse">
<stop stop-color="#53B1D2"/>
<stop offset="1" stop-color="#6BE7DC"/>
</linearGradient>
<linearGradient id="paint2_linear_24_1135" x1="259.307" y1="15.4944" x2="260.014" y2="15.5031" gradientUnits="userSpaceOnUse">
<stop stop-color="#53B1D2"/>
<stop offset="1" stop-color="#6BE7DC"/>
</linearGradient>
<linearGradient id="paint3_linear_24_1135" x1="0.414775" y1="59.2777" x2="1.12226" y2="59.2864" gradientUnits="userSpaceOnUse">
<stop stop-color="#53B1D2"/>
<stop offset="1" stop-color="#6BE7DC"/>
</linearGradient>
<linearGradient id="paint4_linear_24_1135" x1="259.307" y1="-5.44534" x2="260.014" y2="-5.43659" gradientUnits="userSpaceOnUse">
<stop stop-color="#53B1D2"/>
<stop offset="1" stop-color="#6BE7DC"/>
</linearGradient>
</defs>
</svg>
