<svg width="99" height="33" viewBox="0 0 99 33" fill="none" xmlns="http://www.w3.org/2000/svg">
<rect x="0.471649" y="0.24884" width="97.5702" height="32.5226" rx="5.24558" fill="url(#paint0_linear_24_840)"/>
<path d="M23.9697 11.5715V18.9792H21.2631V11.5715H18.414V19.9906L19.9667 21.5433H25.266L26.8188 19.9906V11.5715H23.9697ZM31.9655 24.5349V21.5433H35.1707L36.7235 19.9906V15.2611L35.1707 13.7084H32.5923L31.6236 14.677V13.7084H29.2019V24.5349H31.9655ZM33.9599 16.2725V19.0646H31.9655V16.5574L32.2932 16.2725H33.9599ZM38.6808 21.6715V22.9821L40.2336 24.5349H44.5642L46.1169 22.9821V13.7084H43.6952V14.677L42.7265 13.7084H40.1481L38.5954 15.2611V19.4208L40.1481 20.9735H43.3533V22.2556H41.302V21.6715H38.6808ZM41.359 16.2725H43.0257L43.3533 16.5574V18.7797H41.359V16.2725ZM51.1798 21.5433V16.6429L51.5074 16.358H53.6585V13.7084H51.949L50.8379 14.8195V13.7084H48.4161V21.5433H51.1798ZM62.3508 15.2611L60.798 13.7084H56.795L55.2423 15.2611V16.472H57.835V16.0446H59.7011V17.0133H56.6668L55.1141 18.566V19.9906L56.6668 21.5433H59.0886L60.0572 20.5746V21.5433H62.3508V15.2611ZM59.7011 18.3524V19.1786L59.3735 19.435H57.7637V18.3524H59.7011ZM69.1347 10.8593V13.7084H65.9295L64.3768 15.2611V19.9906L65.9295 21.5433H68.5079L69.4766 20.5746V21.5433H71.8983V10.8593H69.1347ZM67.1404 18.9792V16.1871H69.1347V18.6943L68.8071 18.9792H67.1404ZM78.6849 19.3495H76.7617V18.1244H81.3345V15.2611L79.7818 13.7084H75.6079L74.0551 15.2611V19.9906L75.6079 21.5433H79.7818L81.3345 19.9906V18.7227H78.6849V19.3495ZM78.6849 15.9022V16.8993H76.7617V15.9022H78.6849Z" fill="#1A224B"/>
<defs>
<linearGradient id="paint0_linear_24_840" x1="27.6787" y1="-16.8995" x2="99.6095" y2="26.7508" gradientUnits="userSpaceOnUse">
<stop stop-color="#19E1F2"/>
<stop offset="1" stop-color="#6CE7DD"/>
</linearGradient>
</defs>
</svg>
