<svg width="25" height="18" viewBox="0 0 25 18" fill="none" xmlns="http://www.w3.org/2000/svg">
<path fill-rule="evenodd" clip-rule="evenodd" d="M6.37142 14.3847C6.46976 14.2863 6.6032 14.231 6.7423 14.231H17.8471C17.9863 14.231 18.1195 14.2863 18.2179 14.3847L18.6657 14.8323C18.8309 14.9975 18.7139 15.28 18.4801 15.28H6.10916C5.87559 15.28 5.75857 14.9975 5.92374 14.8323L6.37142 14.3847ZM19.524 13.1824C20.8888 12.9331 21.5924 12.7204 22.6728 12.1328L22.7722 12.5302C22.8549 12.8616 22.6044 13.1824 22.263 13.1824H19.524ZM4.95303 13.1826C3.58827 12.9333 2.88462 12.7206 1.8043 12.133L1.70488 12.5305C1.62211 12.8618 1.87259 13.1826 2.21403 13.1826H4.95303ZM21.2102 7.05544C20.3344 7.91517 19.5988 8.57811 18.2374 9.14299C18.104 9.19834 18.0514 9.36176 18.1314 9.4819C18.3588 9.82287 18.7533 10.0135 19.1617 9.97937L20.6039 9.85923C21.2779 9.80314 21.9101 9.50982 22.3884 9.03155C22.7178 8.70213 22.7608 8.18258 22.4899 7.80347L22.0046 7.12406C21.8173 6.86174 21.4403 6.82974 21.2102 7.05544ZM3.28989 7.0559C4.16574 7.91537 4.90134 8.57857 6.26277 9.14319C6.39608 9.19853 6.44876 9.36196 6.36854 9.4821C6.14132 9.82307 5.74668 10.0137 5.33837 9.97957L3.89625 9.85942C3.22226 9.80334 2.5899 9.51001 2.11175 9.03175C1.78219 8.70233 1.73928 8.18304 2.01005 7.80394L2.49537 7.12426C2.68289 6.86194 3.05972 6.82994 3.28989 7.0559ZM4.27815 2.83582L3.43805 5.63629C3.40424 5.74876 3.46609 5.86788 3.57764 5.90523C4.48728 6.20826 5.43994 6.36295 6.39875 6.36295H18.2421C19.2009 6.36295 20.1536 6.20826 21.0632 5.90523C21.1748 5.86788 21.2366 5.74876 21.2028 5.63629L20.3627 2.83582C19.9633 1.50447 18.7379 0.592911 17.3481 0.592911H7.29279C5.90289 0.592911 4.67758 1.50447 4.27815 2.83582ZM22.2605 17.9023H21.736C20.867 17.9023 20.1624 17.1977 20.1624 16.3287H5.99997C5.38528 16.3287 4.85652 16.7559 4.34108 17.1726C4.12786 17.3449 3.91695 17.5153 3.70308 17.6531C3.45798 17.8108 3.166 17.9023 2.85277 17.9023H2.32823C1.45922 17.9023 0.754633 17.1977 0.754633 16.3287V9.2398C0.754633 8.40506 1.08618 7.60446 1.67641 7.01436L2.32823 6.36252H1.26495C0.693419 6.36252 0.230099 5.8992 0.230099 5.32756C0.230099 5.01098 0.445624 4.73514 0.752713 4.6583L1.67654 4.42728C2.00757 4.34455 2.32823 4.59504 2.32823 4.93619V5.83799H2.85277L3.79388 2.38728C4.1673 1.01807 5.41089 0.0681152 6.8302 0.0681152H17.7585C19.1778 0.0681152 20.4214 1.01807 20.7949 2.38728L21.736 5.83799H22.2605V4.93619C22.2605 4.59504 22.5812 4.34455 22.9122 4.42728L23.8361 4.6583C24.1431 4.73514 24.3587 5.01098 24.3587 5.32756C24.3587 5.8992 23.8953 6.36252 23.3238 6.36252H22.2605L22.9124 7.01436C23.5026 7.60446 23.8341 8.40506 23.8341 9.2398V16.3287C23.8341 17.1977 23.1295 17.9023 22.2605 17.9023Z" fill="white"/>
</svg>
