<svg width="51" height="50" viewBox="0 0 51 50" fill="none" xmlns="http://www.w3.org/2000/svg">
<path fill-rule="evenodd" clip-rule="evenodd" d="M1.77062 41.7167C-0.0494764 43.5277 -0.0494764 46.4604 1.77062 48.2713C2.68067 49.1768 3.87333 49.6279 5.06609 49.6279C6.25885 49.6279 7.4515 49.1768 8.36155 48.2713L23.6585 33.0483L17.0676 26.4968L1.77062 41.7167Z" fill="#424B5F"/>
<path fill-rule="evenodd" clip-rule="evenodd" d="M40.1242 13.3244L46.6605 9.96357L50.0825 3.38455L46.8921 0.211731L40.2795 3.61792L36.894 10.1121L28.9438 18.0275L32.1678 21.2398L40.1242 13.3244Z" fill="#424B5F"/>
<path fill-rule="evenodd" clip-rule="evenodd" d="M41.3912 31.1581L40.764 31.0963C39.6277 31.0963 38.5503 31.328 37.5444 31.6986L18.4285 12.6798C18.8011 11.6791 19.0339 10.6074 19.0339 9.47703L18.9718 8.85313C18.6428 4.03198 14.65 0.211548 9.71974 0.211548C8.2853 0.211548 6.94094 0.560531 5.72701 1.13811L11.9147 7.29342C12.2408 7.61772 12.4643 8.00064 12.6133 8.40529C13.02 9.49857 12.7996 10.7773 11.9147 11.6605C11.3093 12.2628 10.5145 12.5655 9.71974 12.5655C9.35339 12.5655 8.99011 12.4852 8.64235 12.3555C8.23566 12.201 7.85063 11.9848 7.52462 11.6575L1.33699 5.50523C0.75637 6.7128 0.405548 8.05011 0.405548 9.47703C0.405548 14.3815 4.2461 18.3533 9.09265 18.6806L9.71984 18.7424C10.8562 18.7424 11.9335 18.5108 12.9394 18.1433L32.0522 37.1591C31.6859 38.1597 31.453 39.2315 31.453 40.3618L31.5182 40.9857C31.8411 45.8099 35.8369 49.6273 40.7672 49.6273C42.2016 49.6273 43.5491 49.2845 44.7599 48.7007L38.5722 42.5454C38.2493 42.2242 38.0226 41.8382 37.8674 41.4367C37.4607 40.3434 37.6811 39.0617 38.5722 38.1784C39.1714 37.5761 39.9724 37.2735 40.7672 37.2735C41.1336 37.2735 41.4937 37.3507 41.8477 37.4835C42.2543 37.6349 42.6424 37.8511 42.9622 38.1784L49.15 44.3337C49.7336 43.123 50.0814 41.7888 50.0814 40.3619C50.0783 35.4573 46.2378 31.4854 41.3912 31.1581Z" fill="#424B5F"/>
</svg>
