<svg width="54" height="46" viewBox="0 0 54 46" fill="none" xmlns="http://www.w3.org/2000/svg">
<path fill-rule="evenodd" clip-rule="evenodd" d="M15.2613 13.6737H29.4453V5.674H15.2613V0.211548L0.908875 9.67389L15.2613 19.1362V13.6737Z" fill="#424B5F"/>
<path fill-rule="evenodd" clip-rule="evenodd" d="M42.6589 19.1367C47.6127 19.1367 51.6429 15.1276 51.6429 10.1998C51.6429 5.27204 47.6127 1.26294 42.6589 1.26294C37.7052 1.26294 33.675 5.27204 33.675 10.1998C33.675 15.1276 37.7052 19.1367 42.6589 19.1367Z" fill="#424B5F"/>
<path fill-rule="evenodd" clip-rule="evenodd" d="M53.755 35.9591L39.4026 26.4968V31.9594H25.2185V39.959H39.4026V45.4215L53.755 35.9591Z" fill="#424B5F"/>
<path fill-rule="evenodd" clip-rule="evenodd" d="M12.0057 26.4968C7.05195 26.4968 3.02176 30.5059 3.02176 35.4337C3.02176 40.3615 7.05195 44.3705 12.0057 44.3705C16.9594 44.3705 20.9896 40.3615 20.9896 35.4337C20.9896 30.5059 16.9594 26.4968 12.0057 26.4968Z" fill="#424B5F"/>
</svg>
