<svg width="48" height="47" viewBox="0 0 48 47" fill="none" xmlns="http://www.w3.org/2000/svg">
<path fill-rule="evenodd" clip-rule="evenodd" d="M24.1766 0.211548C11.3552 0.211548 0.924072 10.588 0.924072 23.3423C0.924072 36.0966 11.3552 46.4731 24.1766 46.4731C36.998 46.4731 47.4291 36.0966 47.4291 23.3423C47.4291 10.588 36.998 0.211548 24.1766 0.211548ZM24.1762 41.5502C14.0832 41.5502 5.87125 33.3822 5.87125 23.3415C5.87125 13.3009 14.0832 5.13293 24.1762 5.13293C34.2692 5.13293 42.4811 13.3009 42.4811 23.3415C42.4811 33.3822 34.2692 41.5502 24.1762 41.5502Z" fill="#424B5F"/>
<path fill-rule="evenodd" clip-rule="evenodd" d="M36.043 22.7582H25.8124V10.4918C25.8124 9.45959 24.9731 8.62268 23.9379 8.62268C22.9028 8.62268 22.0635 9.45959 22.0635 10.4918V24.6273C22.0635 25.6595 22.9028 26.4965 23.9379 26.4965H36.043C37.0782 26.4965 37.9175 25.6595 37.9175 24.6273C37.9175 23.5951 37.0782 22.7582 36.043 22.7582Z" fill="#424B5F"/>
</svg>
