<svg width="29" height="52" viewBox="0 0 29 52" fill="none" xmlns="http://www.w3.org/2000/svg">
<path fill-rule="evenodd" clip-rule="evenodd" d="M22.0435 23.6143C19.9623 22.497 17.7497 21.6458 15.559 20.7627C14.2884 20.2519 13.0726 19.6561 11.9991 18.8261C9.88508 17.1875 10.2904 14.5275 12.7659 13.4741C13.4669 13.1761 14.2008 13.0804 14.9456 13.0378C17.8154 12.8889 20.5429 13.3996 23.1389 14.6126C24.4314 15.2191 24.8586 15.0276 25.2967 13.7188C25.7568 12.3356 26.1401 10.931 26.5673 9.53717C26.8521 8.60082 26.5016 7.98369 25.5925 7.59C23.9275 6.8771 22.2188 6.36636 20.4224 6.08972C18.0783 5.73859 18.0783 5.72795 18.0674 3.44028C18.0564 0.216277 18.0564 0.216277 14.7265 0.216277C14.2446 0.216277 13.7626 0.205637 13.2807 0.216277C11.7253 0.258838 11.4624 0.524845 11.4186 2.04641C11.3967 2.72739 11.4186 3.40836 11.4076 4.09998C11.3967 6.12164 11.3857 6.08972 9.39217 6.79198C4.57261 8.49442 1.59325 11.6865 1.2756 16.7938C0.990803 21.316 3.42249 24.3697 7.24528 26.5936C9.60029 27.9662 12.2072 28.7748 14.7046 29.8495C15.6795 30.2645 16.6106 30.7433 17.4211 31.403C19.8199 33.3289 19.3818 36.5316 16.5339 37.7446C15.0113 38.3936 13.4012 38.5532 11.7472 38.3511C9.19501 38.0425 6.75237 37.3934 4.45212 36.2337C3.10484 35.5527 2.71051 35.7336 2.25046 37.1487C1.85613 38.3724 1.50562 39.6066 1.15511 40.8409C0.684104 42.5008 0.859361 42.8945 2.49144 43.6712C4.57261 44.6501 6.79618 45.1502 9.06356 45.5013C10.838 45.778 10.8928 45.8525 10.9147 47.64C10.9257 48.4487 10.9257 49.268 10.9366 50.0767C10.9476 51.0981 11.4514 51.694 12.5358 51.7153C13.7626 51.7366 15.0004 51.7366 16.2272 51.7046C17.2349 51.6833 17.7497 51.1513 17.7497 50.1618C17.7497 49.0552 17.8045 47.938 17.7607 46.8314C17.7059 45.7035 18.2098 45.1289 19.327 44.831C21.9011 44.15 24.0918 42.8093 25.7787 40.809C30.4668 35.276 28.6814 27.1788 22.0435 23.6143Z" fill="#424B5F"/>
</svg>
