<svg width="33" height="31" viewBox="0 0 33 31" fill="none" xmlns="http://www.w3.org/2000/svg">
<rect x="0.0137939" y="0.655334" width="32.3604" height="29.5051" rx="4.75905" fill="url(#paint0_linear_24_696)"/>
<path d="M23.6772 11.7473L19.5522 7.46372C19.4176 7.32416 19.2114 7.28035 19.0318 7.35263C18.8516 7.4256 18.7336 7.60013 18.7336 7.79431V9.85686H18.575C15.1633 9.85686 12.3875 12.6327 12.3875 16.0443V16.9962C12.3875 17.217 12.543 17.401 12.7581 17.4512C12.7931 17.4601 12.8279 17.4639 12.8628 17.4639C13.0424 17.4639 13.2144 17.3585 13.2975 17.1929C14.1898 15.4077 15.9838 14.2991 17.9797 14.2991H18.7336V16.3615C18.7336 16.5558 18.8516 16.7303 19.0318 16.8026C19.2102 16.8756 19.4176 16.8312 19.5522 16.6915L23.6772 12.4079C23.8549 12.2233 23.8549 11.9327 23.6772 11.7473Z" fill="#1A224B"/>
<path d="M21.9051 22.5474H10.4836C9.43415 22.5474 8.58008 21.6934 8.58008 20.6438V11.7606C8.58008 10.7111 9.43415 9.85699 10.4836 9.85699H12.3872C12.7381 9.85699 13.0217 10.1406 13.0217 10.4915C13.0217 10.8424 12.7381 11.126 12.3872 11.126H10.4836C10.1333 11.126 9.84905 11.4103 9.84905 11.7606V20.6438C9.84905 20.9941 10.1333 21.2784 10.4836 21.2784H21.9051C22.2552 21.2784 22.5395 20.9941 22.5395 20.6438V15.5677C22.5395 15.2168 22.8231 14.9331 23.174 14.9331C23.525 14.9331 23.8086 15.2168 23.8086 15.5677V20.6438C23.8086 21.6934 22.9545 22.5474 21.9051 22.5474Z" fill="#1A224B"/>
<defs>
<linearGradient id="paint0_linear_24_696" x1="9.03737" y1="-14.9019" x2="40.1482" y2="-7.99998" gradientUnits="userSpaceOnUse">
<stop stop-color="#19E1F2"/>
<stop offset="1" stop-color="#6CE7DD"/>
</linearGradient>
</defs>
</svg>
