<svg width="90" height="31" viewBox="0 0 90 31" fill="none" xmlns="http://www.w3.org/2000/svg">
<rect x="0.878418" y="0.655334" width="88.5204" height="29.5061" rx="4.75905" fill="url(#paint0_linear_24_688)"/>
<path d="M43.4775 19.3666L44.9299 17.9142V15.6888H42.2649V16.9681H40.0529V12.4375H42.2649V13.7167H44.9299V11.4914L43.4775 10.0389H38.8403L37.3878 11.4914V17.9142L38.8403 19.3666H43.4775ZM48.1244 12.0377L46.672 13.4902V17.9142L48.1244 19.3666H52.2553L53.7077 17.9142V13.4902L52.2553 12.0377H48.1244ZM51.1226 17.048H49.2571V14.3563H51.1226V17.048ZM58.3002 22.165V19.3666H61.2984L62.7509 17.9142V13.4902L61.2984 12.0377H58.8865L57.9804 12.9438V12.0377H55.7151V22.165H58.3002ZM60.1658 14.4363V17.048H58.3002V14.7028L58.6067 14.4363H60.1658ZM64.5804 19.4866V20.7125L66.0328 22.165H70.0837L71.5362 20.7125V12.0377H68.9511V16.6483H67.1388V12.0377H64.5537V17.3812L66.0062 18.8336H68.9511V20.0329H67.0322V19.4866H64.5804Z" fill="#1A224B"/>
<path d="M23.1273 19.6231C21.7573 19.6231 20.6423 18.5081 20.6423 17.1382V11.1452H19.6192C18.7322 11.1452 18.0112 11.866 18.0112 12.753V20.6463C18.0112 21.5332 18.7322 22.2542 19.6192 22.2542H26.9276C27.8146 22.2542 28.5356 21.5332 28.5356 20.6463V19.6231H23.1273Z" fill="#1A224B"/>
<path d="M30.8743 9.83027C30.8743 8.94211 30.1545 8.22235 29.2665 8.22235H23.1273C22.2391 8.22235 21.5193 8.94211 21.5193 9.83027V17.1388C21.5193 18.0269 22.2391 18.7467 23.1273 18.7467H29.2665C30.1545 18.7467 30.8743 18.0269 30.8743 17.1388V9.83027Z" fill="#1A224B"/>
<defs>
<linearGradient id="paint0_linear_24_688" x1="25.562" y1="-14.9024" x2="90.8211" y2="24.6992" gradientUnits="userSpaceOnUse">
<stop stop-color="#19E1F2"/>
<stop offset="1" stop-color="#6CE7DD"/>
</linearGradient>
</defs>
</svg>
