<svg width="150" height="130" viewBox="0 0 150 130" fill="none" xmlns="http://www.w3.org/2000/svg">
<path d="M34.1318 55.2603L64.8934 79.0943C65.8544 79.8387 67.2499 79.6625 67.9964 78.7033L81.4917 61.3116C82.2362 60.3519 82.0591 58.9575 81.0987 58.2111L50.3371 34.3771C49.3761 33.6328 47.9806 33.809 47.234 34.7681L33.7388 52.1598C32.9917 53.121 33.1688 54.5154 34.1318 55.2603Z" fill="#FFB145"/>
<path d="M34.1253 55.2845L64.8829 79.1334C65.8438 79.8782 67.2395 79.7014 67.9863 78.7412L81.4869 61.3295C82.2317 60.3686 82.055 58.973 81.0947 58.2261L50.337 34.3772C49.3762 33.6325 47.9805 33.8092 47.2337 34.7695L33.7331 52.1811C32.9857 53.1435 33.1624 54.5392 34.1253 55.2845Z" fill="url(#paint0_linear_9_1874)"/>
<path opacity="0.2" d="M68.1375 59.4799L74.1531 64.1437C74.6161 64.5014 75.2871 64.417 75.6448 63.954L77.9835 60.9371C78.3411 60.4741 78.2568 59.8031 77.7937 59.4454L71.7781 54.7816C71.3151 54.424 70.6441 54.5083 70.2865 54.9713L67.9477 57.9882C67.5906 58.4492 67.675 59.1202 68.1375 59.4799Z" fill="white"/>
<path opacity="0.4" d="M62.1083 68.6444L68.0006 73.214C68.1744 73.3479 68.427 73.3174 68.5609 73.1437L69.3849 72.0808C69.5188 71.9071 69.4883 71.6544 69.3145 71.5206L63.4222 66.9509C63.2485 66.817 62.9958 66.8476 62.8619 67.0213L62.0379 68.0841C61.902 68.2573 61.9351 68.5085 62.1083 68.6444Z" fill="white"/>
<path opacity="0.4" d="M54.4407 62.6996L60.333 67.2693C60.5068 67.4031 60.7594 67.3726 60.8933 67.1989L61.7173 66.1361C61.8512 65.9624 61.8206 65.7097 61.6469 65.5758L55.7546 61.0061C55.5809 60.8723 55.3282 60.9028 55.1943 61.0765L54.3703 62.1394C54.2344 62.3125 54.2675 62.5637 54.4407 62.6996Z" fill="white"/>
<rect opacity="0.2" x="38.9962" y="45.3874" width="43.3295" height="7.43197" transform="rotate(37.7702 38.9962 45.3874)" fill="white"/>
<path d="M98.4403 55.2728L67.7141 79.0974C66.7542 79.8414 65.3599 79.6649 64.6139 78.7056L51.127 61.3117C50.383 60.3518 50.5596 58.9575 51.5189 58.2115L82.2452 34.3869C83.205 33.6429 84.5993 33.8194 85.3453 34.7787L98.8322 52.1726C99.5788 53.134 99.4022 54.5283 98.4403 55.2728Z" fill="#CE5959"/>
<g opacity="0.9" filter="url(#filter0_d_9_1874)">
<path d="M98.4403 55.2728L67.7141 79.0974C66.7542 79.8414 65.3599 79.6649 64.6139 78.7056L51.127 61.3117C50.383 60.3518 50.5596 58.9575 51.5189 58.2115L82.2452 34.3869C83.205 33.6429 84.5993 33.8194 85.3453 34.7787L98.8322 52.1726C99.5788 53.134 99.4022 54.5283 98.4403 55.2728Z" fill="url(#paint1_linear_9_1874)"/>
</g>
<path opacity="0.2" d="M64.4813 59.4799L58.4657 64.1437C58.0026 64.5014 57.3317 64.417 56.974 63.954L54.6353 60.9371C54.2776 60.4741 54.362 59.8031 54.825 59.4454L60.8406 54.7816C61.3037 54.424 61.9747 54.5083 62.3323 54.9713L64.671 57.9882C65.0281 58.4492 64.9438 59.1202 64.4813 59.4799Z" fill="white"/>
<path opacity="0.4" d="M70.5105 68.6444L64.6181 73.214C64.4444 73.3479 64.1917 73.3174 64.0579 73.1437L63.2339 72.0808C63.1 71.9071 63.1305 71.6544 63.3042 71.5206L69.1966 66.9509C69.3703 66.817 69.623 66.8476 69.7569 67.0213L70.5809 68.0841C70.7168 68.2573 70.6837 68.5085 70.5105 68.6444Z" fill="white"/>
<path opacity="0.4" d="M78.1782 62.6996L72.2858 67.2693C72.1121 67.4031 71.8595 67.3726 71.7256 67.1989L70.9016 66.1361C70.7677 65.9624 70.7982 65.7097 70.972 65.5758L76.8643 61.0061C77.038 60.8723 77.2907 60.9028 77.4246 61.0765L78.2486 62.1394C78.3845 62.3125 78.3514 62.5637 78.1782 62.6996Z" fill="white"/>
<path opacity="0.4" d="M85.8453 56.7527L79.953 61.3223C79.7793 61.4562 79.5266 61.4257 79.3927 61.2519L78.5687 60.1891C78.4348 60.0154 78.4654 59.7627 78.6391 59.6288L84.5314 55.0592C84.7052 54.9253 84.9578 54.9558 85.0917 55.1295L85.9157 56.1924C86.0516 56.3656 86.019 56.6188 85.8453 56.7527Z" fill="white"/>
<path opacity="0.4" d="M93.5132 50.808L87.6208 55.3777C87.4471 55.5116 87.1944 55.481 87.0606 55.3073L86.2365 54.2445C86.1027 54.0708 86.1332 53.8181 86.3069 53.6842L92.1993 49.1146C92.373 48.9807 92.6257 49.0112 92.7595 49.1849L93.5836 50.2478C93.7195 50.4209 93.6869 50.6742 93.5132 50.808Z" fill="white"/>
<g opacity="0.6">
<path opacity="0.6" d="M84.3913 43.9916C85.8375 43.2137 86.3793 41.4108 85.6015 39.9646C84.8236 38.5184 83.0207 37.9766 81.5745 38.7544C80.1283 39.5323 79.5865 41.3352 80.3643 42.7814C81.1421 44.2276 82.9451 44.7694 84.3913 43.9916Z" fill="#ECA94D"/>
<path opacity="0.6" d="M82.652 44.874C83.2635 43.35 82.5237 41.6188 80.9997 41.0074C79.4757 40.3959 77.7445 41.1357 77.133 42.6597C76.5216 44.1837 77.2613 45.9149 78.7854 46.5263C80.3094 47.1378 82.0405 46.398 82.652 44.874Z" fill="#DA3C3A"/>
</g>
<defs>
<filter id="filter0_d_9_1874" x="0.666504" y="-16.0736" width="148.628" height="145.632" filterUnits="userSpaceOnUse" color-interpolation-filters="sRGB">
<feFlood flood-opacity="0" result="BackgroundImageFix"/>
<feColorMatrix in="SourceAlpha" type="matrix" values="0 0 0 0 0 0 0 0 0 0 0 0 0 0 0 0 0 0 127 0" result="hardAlpha"/>
<feOffset/>
<feGaussianBlur stdDeviation="25"/>
<feComposite in2="hardAlpha" operator="out"/>
<feColorMatrix type="matrix" values="0 0 0 0 0.890196 0 0 0 0 0.188235 0 0 0 0 0.576471 0 0 0 1 0"/>
<feBlend mode="normal" in2="BackgroundImageFix" result="effect1_dropShadow_9_1874"/>
<feBlend mode="normal" in="SourceGraphic" in2="effect1_dropShadow_9_1874" result="shape"/>
</filter>
<linearGradient id="paint0_linear_9_1874" x1="78.6267" y1="20.049" x2="30.8214" y2="19.1616" gradientUnits="userSpaceOnUse">
<stop stop-color="#19E1F2"/>
<stop offset="1" stop-color="#6CE7DD"/>
</linearGradient>
<linearGradient id="paint1_linear_9_1874" x1="52.9035" y1="31.4333" x2="102.722" y2="66.3535" gradientUnits="userSpaceOnUse">
<stop stop-color="#EA3498"/>
<stop offset="1" stop-color="#A6075E"/>
</linearGradient>
</defs>
</svg>
