<svg width="24" height="20" viewBox="0 0 24 20" fill="none" xmlns="http://www.w3.org/2000/svg">
<path fill-rule="evenodd" clip-rule="evenodd" d="M12.2419 4.67202C12.2419 7.16776 10.2481 10.1825 7.77254 10.1825C5.29701 10.1825 3.30318 7.16776 3.30318 4.67202C3.30318 2.1863 5.30794 0.163452 7.77254 0.163452C10.2371 0.163452 12.2419 2.1863 12.2419 4.67202ZM22.1744 5.17301C22.1744 7.44183 20.4025 10.1825 18.2016 10.1825C16.0007 10.1825 14.2289 7.44183 14.2289 5.17301C14.2289 2.96331 16.0111 1.1654 18.2016 1.1654C20.3921 1.1654 22.1744 2.96331 22.1744 5.17301ZM22.3053 12.3048C21.4403 12.0222 20.0269 11.6856 18.202 11.6856C16.5294 11.6856 15.208 11.9681 14.333 12.2331C15.1881 12.8859 15.719 13.9148 15.719 15.0309V17.1961H23.1679C23.4425 17.1961 23.6645 16.9716 23.6645 16.6951V14.2064C23.6645 13.3347 23.1178 12.5708 22.3053 12.3048ZM7.77284 11.6856C9.88735 11.6856 11.8181 12.2196 13.0656 12.6674C14.0583 13.0236 14.7252 13.9734 14.7252 15.0309V18.6989C14.7252 18.9754 14.5032 19.1999 14.2286 19.1999H1.31709C1.04247 19.1999 0.820496 18.9754 0.820496 18.6989V15.0309C0.820496 13.9734 1.48742 13.0236 2.48012 12.6674C3.72757 12.2196 5.65833 11.6856 7.77284 11.6856Z" fill="#D2459E"/>
</svg>
