<svg width="525" height="435" viewBox="0 0 525 435" fill="none" xmlns="http://www.w3.org/2000/svg">
<path opacity="0.2" fill-rule="evenodd" clip-rule="evenodd" d="M0.580005 183.589C0.615363 180.051 3.5782 177.197 7.11572 177.117C122.806 174.499 125.799 101.59 214.285 88.1363C304.391 74.436 297.124 141.568 369.79 141.568C440.273 141.568 450.595 8.8057 517.463 0.828326C520.976 0.409262 523.873 3.18314 523.908 6.72056C525.135 130.817 524.066 385.33 523.872 428.443C523.856 431.996 520.972 434.714 517.419 434.714H7.02381C3.48903 434.714 0.613528 431.937 0.577421 428.403C0.311899 402.411 -0.578647 299.535 0.580005 183.589Z" fill="url(#paint0_linear_78_1190)"/>
<defs>
<linearGradient id="paint0_linear_78_1190" x1="4.08738" y1="456.229" x2="524.569" y2="456.229" gradientUnits="userSpaceOnUse">
<stop stop-color="#D2469E" stop-opacity="0.83"/>
<stop offset="1" stop-color="#4BD5CF" stop-opacity="0.83"/>
</linearGradient>
</defs>
</svg>
