<svg width="17" height="15" viewBox="0 0 17 15" fill="none" xmlns="http://www.w3.org/2000/svg">
<path d="M13.6244 12.046C11.9095 12.046 10.514 10.6504 10.514 8.93559C10.514 7.22074 11.9095 5.82521 13.6244 5.82521H15.3523V4.44282C15.3523 3.68044 14.7323 3.06043 13.9699 3.06043H13.2788V1.67804C13.2788 0.915656 12.6588 0.295654 11.8964 0.295654H2.21964C1.1946 0.295654 0.347195 1.04491 0.181308 2.02295C0.166102 2.07963 0.146057 2.13492 0.146057 2.19644V12.7372C0.146057 13.8804 1.07641 14.8107 2.21964 14.8107H13.9699C14.7323 14.8107 15.3523 14.1907 15.3523 13.4284V12.046H13.6244ZM1.52845 2.36924C1.52845 1.98839 1.8381 1.67804 2.21964 1.67804H11.8964V3.06043H2.21964C1.8381 3.06043 1.52845 2.75009 1.52845 2.36924Z" fill="white"/>
<path d="M16.2176 6.86224H13.6253C12.4819 6.86224 11.5514 7.79273 11.5514 8.93613C11.5514 10.0795 12.4819 11.01 13.6253 11.01H16.2176C16.5038 11.01 16.7361 10.7777 16.7361 10.4915V7.38071C16.7361 7.09452 16.5038 6.86224 16.2176 6.86224ZM13.6253 9.62742C13.2437 9.62742 12.934 9.31772 12.934 8.93613C12.934 8.55453 13.2437 8.24483 13.6253 8.24483C14.0069 8.24483 14.3166 8.55453 14.3166 8.93613C14.3166 9.31772 14.0069 9.62742 13.6253 9.62742Z" fill="white"/>
</svg>
