<svg width="45" height="54" viewBox="0 0 45 54" fill="none" xmlns="http://www.w3.org/2000/svg">
<path d="M27.374 44.3724V50.2455L22.2677 53.2548L17.3066 50.2455V44.3724L22.2677 47.3818L27.374 44.3724ZM0.0515137 24.0594L5.01264 27.0687V37.1403L13.5555 42.261V48.1341L0.0515137 40.1496V24.0594ZM44.4839 24.0594V40.1739L30.8347 48.1584V42.2853L39.3775 37.1646V27.0687L44.4839 24.0594ZM30.8105 16.0749L35.9168 19.0842V24.9573L27.374 30.078V40.3195L22.4129 43.3289L17.4518 40.3195V30.078L8.59433 24.9573V19.0842L13.7007 16.0749L22.2435 21.1956L30.8105 16.0749ZM8.61854 29.1801L13.5797 32.1894V38.0625L8.61854 35.0532V29.1801ZM35.9168 29.1801V35.0532L30.9557 38.0625V32.1894L35.9168 29.1801ZM5.01264 10.9542L10.119 13.9635L5.01264 16.9728V22.8459L0.0515137 19.8366V13.9635L5.01264 10.9542ZM39.5227 10.9542L44.6291 13.9635V19.8366L39.5227 22.8459V16.9728L34.5616 13.9635L39.5227 10.9542ZM22.2677 10.9542L27.374 13.9635L22.2677 16.9971L17.3066 13.9878L22.2677 10.9542ZM22.2677 0.882568L35.9168 8.86703L30.9557 11.8764L22.4129 6.75564L13.7007 11.8764L8.76374 8.86703L22.2677 0.882568Z" fill="#EA3498"/>
</svg>
