<svg width="188" height="174" viewBox="0 0 188 174" fill="none" xmlns="http://www.w3.org/2000/svg">
<path d="M37.2338 80.8343L79.977 113.951C81.3123 114.985 83.2514 114.741 84.2887 113.408L103.041 89.2421C104.075 87.9086 103.829 85.9711 102.495 84.9341L59.7513 51.8173C58.4161 50.7831 56.477 51.0279 55.4397 52.3607L36.6878 76.5263C35.6497 77.8619 35.8958 79.7994 37.2338 80.8343Z" fill="#FFB145"/>
<path d="M37.2248 80.8679L79.9625 114.005C81.2976 115.04 83.2369 114.795 84.2746 113.46L103.034 89.267C104.069 87.9319 103.823 85.9926 102.489 84.9549L59.7513 51.8175C58.4162 50.7826 56.4769 51.0282 55.4392 52.3625L36.6799 76.5559C35.6414 77.893 35.8869 79.8323 37.2248 80.8679Z" fill="url(#paint0_linear_24_1178)"/>
<path opacity="0.2" d="M84.4854 86.6971L92.8439 93.1773C93.4873 93.6743 94.4196 93.5571 94.9165 92.9137L98.1662 88.7218C98.6631 88.0784 98.5459 87.1461 97.9025 86.6491L89.544 80.1689C88.9006 79.672 87.9683 79.7892 87.4713 80.4326L84.2217 84.6245C83.7255 85.265 83.8427 86.1973 84.4854 86.6971Z" fill="white"/>
<path opacity="0.4" d="M76.1075 99.4309L84.2949 105.78C84.5362 105.966 84.8873 105.924 85.0733 105.683L86.2183 104.206C86.4043 103.964 86.3619 103.613 86.1205 103.427L77.9332 97.0779C77.6918 96.8919 77.3407 96.9343 77.1547 97.1757L76.0098 98.6525C75.8209 98.8931 75.8669 99.2421 76.1075 99.4309Z" fill="white"/>
<path opacity="0.4" d="M65.4531 91.1708L73.6404 97.5202C73.8818 97.7062 74.2329 97.6637 74.4189 97.4224L75.5639 95.9456C75.7499 95.7042 75.7075 95.3531 75.4661 95.1671L67.2788 88.8177C67.0374 88.6317 66.6863 88.6742 66.5003 88.9155L65.3554 90.3923C65.1665 90.6329 65.2125 90.982 65.4531 91.1708Z" fill="white"/>
<rect opacity="0.2" width="60.2062" height="10.3266" transform="matrix(0.790481 0.612487 -0.612505 0.790466 43.9929 67.1158)" fill="white"/>
<path d="M126.591 80.8517L83.8966 113.955C82.5628 114.989 80.6255 114.744 79.5889 113.411L60.8487 89.2422C59.8148 87.9085 60.0601 85.9712 61.3931 84.9346L104.087 51.8309C105.421 50.7971 107.358 51.0424 108.395 52.3754L127.135 76.5441C128.172 77.8799 127.927 79.8172 126.591 80.8517Z" fill="#CE5959"/>
<g opacity="0.9" filter="url(#filter0_d_24_1178)">
<path d="M126.591 80.8517L83.8966 113.955C82.5628 114.989 80.6255 114.744 79.5889 113.411L60.8487 89.2422C59.8148 87.9085 60.0601 85.9712 61.3931 84.9346L104.087 51.8309C105.421 50.7971 107.358 51.0424 108.395 52.3754L127.135 76.5441C128.172 77.8799 127.927 79.8172 126.591 80.8517Z" fill="url(#paint1_linear_24_1178)"/>
</g>
<path opacity="0.2" d="M79.4039 86.6971L71.0454 93.1773C70.402 93.6743 69.4697 93.5571 68.9727 92.9137L65.7231 88.7218C65.2262 88.0784 65.3434 87.1461 65.9868 86.6491L74.3453 80.1689C74.9887 79.672 75.921 79.7892 76.4179 80.4326L79.6675 84.6245C80.1638 85.265 80.0465 86.1973 79.4039 86.6971Z" fill="white"/>
<path opacity="0.4" d="M87.7819 99.4309L79.5946 105.78C79.3533 105.966 79.0021 105.924 78.8161 105.683L77.6712 104.206C77.4852 103.964 77.5276 103.613 77.769 103.427L85.9563 97.0779C86.1976 96.8919 86.5487 96.9343 86.7347 97.1757L87.8797 98.6525C88.0685 98.8931 88.0225 99.2421 87.7819 99.4309Z" fill="white"/>
<path opacity="0.4" d="M98.4362 91.1708L90.2489 97.5202C90.0075 97.7062 89.6564 97.6637 89.4704 97.4224L88.3255 95.9456C88.1395 95.7042 88.1819 95.3531 88.4233 95.1671L96.6106 88.8177C96.8519 88.6317 97.203 88.6742 97.389 88.9155L98.534 90.3923C98.7228 90.6329 98.6768 90.982 98.4362 91.1708Z" fill="white"/>
<path opacity="0.4" d="M109.09 82.9076L100.902 89.257C100.661 89.443 100.31 89.4006 100.124 89.1592L98.979 87.6824C98.793 87.441 98.8355 87.0899 99.0768 86.9039L107.264 80.5546C107.505 80.3686 107.857 80.411 108.043 80.6523L109.188 82.1292C109.376 82.3698 109.331 82.7216 109.09 82.9076Z" fill="white"/>
<path opacity="0.4" d="M119.744 74.6477L111.557 80.9971C111.316 81.1831 110.965 81.1407 110.779 80.8993L109.634 79.4225C109.448 79.1811 109.49 78.83 109.731 78.644L117.919 72.2947C118.16 72.1087 118.511 72.1511 118.697 72.3925L119.842 73.8693C120.031 74.1099 119.986 74.4617 119.744 74.6477Z" fill="white"/>
<g opacity="0.6">
<path opacity="0.6" d="M107.069 65.1763C109.079 64.0956 109.831 61.5905 108.751 59.581C107.67 57.5716 105.165 56.8187 103.155 57.8994C101.146 58.9802 100.393 61.4853 101.474 63.4948C102.555 65.5042 105.06 66.2571 107.069 65.1763Z" fill="#ECA94D"/>
<path opacity="0.6" d="M104.653 66.4025C105.502 64.2849 104.474 61.8795 102.357 61.0299C100.239 60.1802 97.8338 61.2081 96.9842 63.3256C96.1346 65.4432 97.1625 67.8486 99.2801 68.6983C101.398 69.5479 103.803 68.52 104.653 66.4025Z" fill="#DA3C3A"/>
</g>
<defs>
<filter id="filter0_d_24_1178" x="0.844093" y="-8.17364" width="186.298" height="182.134" filterUnits="userSpaceOnUse" color-interpolation-filters="sRGB">
<feFlood flood-opacity="0" result="BackgroundImageFix"/>
<feColorMatrix in="SourceAlpha" type="matrix" values="0 0 0 0 0 0 0 0 0 0 0 0 0 0 0 0 0 0 127 0" result="hardAlpha"/>
<feOffset/>
<feGaussianBlur stdDeviation="29.6823"/>
<feComposite in2="hardAlpha" operator="out"/>
<feColorMatrix type="matrix" values="0 0 0 0 0.890196 0 0 0 0 0.188235 0 0 0 0 0.576471 0 0 0 1 0"/>
<feBlend mode="normal" in2="BackgroundImageFix" result="effect1_dropShadow_24_1178"/>
<feBlend mode="normal" in="SourceGraphic" in2="effect1_dropShadow_24_1178" result="shape"/>
</filter>
<linearGradient id="paint0_linear_24_1178" x1="99.06" y1="31.9083" x2="32.6344" y2="30.6748" gradientUnits="userSpaceOnUse">
<stop stop-color="#19E1F2"/>
<stop offset="1" stop-color="#6CE7DD"/>
</linearGradient>
<linearGradient id="paint1_linear_24_1178" x1="63.3167" y1="47.7266" x2="132.54" y2="96.2488" gradientUnits="userSpaceOnUse">
<stop stop-color="#EA3498"/>
<stop offset="1" stop-color="#A6075E"/>
</linearGradient>
</defs>
</svg>
