<svg width="26" height="28" viewBox="0 0 26 28" fill="none" xmlns="http://www.w3.org/2000/svg">
<g opacity="0.5">
<path d="M3.25742 24.5723H19.3821L18.612 22.0788L20.4542 23.6597L22.1425 25.1727L25.2184 27.7432V3.40174C25.1415 1.88867 23.8388 0.602905 22.2239 0.602905L3.26308 0.606298C1.64936 0.606298 0.339844 1.89433 0.339844 3.4074V21.7723C0.339844 23.3679 1.6471 24.5723 3.25742 24.5723ZM15.1856 7.02949L15.1482 7.04306L15.1618 7.02949H15.1856ZM6.55609 8.46453C8.62893 6.95599 10.5502 7.02836 10.5502 7.02836L10.7052 7.18102C8.16868 7.78602 7.01861 8.91913 7.01861 8.91913C7.01861 8.91913 7.3262 8.76873 7.86335 8.53917C11.2796 7.19572 15.0103 7.29298 18.4639 8.99377C18.4639 8.99377 17.3116 7.93417 14.9311 7.25566L15.1415 7.04871C15.4705 7.04985 17.212 7.11091 19.0757 8.47358C19.0757 8.47358 21.1609 12.0357 21.1609 16.4121C21.092 16.3284 19.8673 18.2961 16.7156 18.3639C16.7156 18.3639 16.1818 17.7601 15.8019 17.2331C17.6451 16.7039 18.335 15.6454 18.335 15.6454C17.73 16.0265 17.1781 16.2527 16.7303 16.4788C16.0416 16.7819 15.3518 16.9312 14.6631 17.0838C11.4018 17.6131 9.57092 16.7276 7.84073 16.0254L7.2493 15.7245C7.2493 15.7245 7.93798 16.783 9.70776 17.3123C9.24298 17.8426 8.78272 18.4454 8.78272 18.4454C5.63219 18.3707 4.48326 16.4031 4.48326 16.4031C4.48326 12.0199 6.55609 8.46453 6.55609 8.46453Z" fill="white"/>
<path d="M15.3907 15.0472C16.1952 15.0472 16.8504 14.3683 16.8504 13.5309C16.8504 12.6992 16.1986 12.0203 15.3907 12.0203V12.0237C14.5895 12.0237 13.9332 12.7003 13.931 13.5377C13.931 14.3683 14.5861 15.0472 15.3907 15.0472Z" fill="white"/>
<path d="M10.1689 15.0473C10.9735 15.0473 11.6287 14.3684 11.6287 13.531C11.6287 12.6993 10.978 12.0204 10.1735 12.0204L10.1689 12.0238C9.3644 12.0238 8.70923 12.7005 8.70923 13.5378C8.70923 14.3684 9.3644 15.0473 10.1689 15.0473Z" fill="white"/>
</g>
</svg>
