<svg width="121" height="147" viewBox="0 0 121 147" fill="none" xmlns="http://www.w3.org/2000/svg">
<g opacity="0.9">
<path opacity="0.21" fill-rule="evenodd" clip-rule="evenodd" d="M9.70503 112.016C9.70503 112.016 9.71079 111.983 9.75626 111.92C11.7794 107.412 14.2941 103.093 16.7925 100.306C16.8835 100.182 17.0025 100.097 17.0934 99.9732C17.6102 99.3978 18.1211 98.8564 18.609 98.4506C22.6043 94.6618 28.5469 90.506 33.6366 87.6712C33.0372 85.8589 32.7353 84.7603 32.7353 84.7603C32.7353 84.7603 40.0822 78.5045 55.6467 78.3232C55.6806 78.329 55.7203 78.3008 55.7542 78.3066C55.4207 78.215 55.0533 78.1176 54.7256 77.9921C16.9839 65.9207 26.73 16.1953 26.73 16.1953C27.0469 16.1794 27.3298 16.1577 27.6467 16.1417C27.3298 16.1577 27.013 16.1736 26.73 16.1953C26.73 16.1953 26.9913 15.8907 27.547 15.4964C27.547 15.4964 29.059 2.90792 37.4314 3.14449C45.9056 3.39837 47.5637 15.4088 47.7611 17.3274C54.6207 18.2492 67.5734 20.9051 90.4852 28.2212C90.4852 28.2212 90.4116 28.2436 90.2643 28.2884C91.4568 28.6656 92.6436 29.0768 93.8022 29.4483L90.4852 28.2212C90.836 28.211 91.1529 28.1951 91.4698 28.1792C91.4698 28.1792 99.5076 14.7802 108.721 17.2542C117.703 19.6539 116.799 31.5429 116.174 35.8349C117.103 37.1448 117.287 38.1184 117.287 38.1184C117.287 38.1184 101.036 77.034 70.8773 79.9003C74.3205 80.5904 78.0286 81.5699 81.5997 82.9449L81.5658 82.9392C82.2948 83.1678 83.0181 83.4305 83.7415 83.6931C83.7415 83.6931 83.604 85.9386 83.1008 89.3088C87.8504 93.6069 95.6373 105.089 98.2041 112.576C101.83 123.28 100.162 147.048 95.2959 143.847C91.9651 141.675 83.9715 117.242 80.6063 101.311C79.3988 105.539 77.9022 108.182 77.8568 108.244C75.8625 112.583 73.2134 116.461 69.6805 118.967C67.3884 120.951 65.1676 121.899 63.4828 121.543C63.0865 121.616 62.6621 121.648 62.2319 121.715C61.8753 121.759 61.5246 121.769 61.1398 121.773C57.7791 121.83 54.649 120.53 51.827 118.445C51.827 118.445 44.4746 114.262 37.1869 97.1759C27.831 110.525 11.1808 129.616 7.2918 130.316C3.45401 130.92 5.6133 121.095 9.70503 112.016Z" fill="url(#paint0_linear_24_1079)"/>
<path fill-rule="evenodd" clip-rule="evenodd" d="M5.56797 111.312C5.56797 111.312 5.57377 111.279 5.61923 111.216C7.64237 106.708 10.1571 102.389 12.6555 99.602C12.7464 99.4778 12.8655 99.3934 12.9564 99.2692C13.4731 98.6938 13.9841 98.1524 14.4719 97.7466C18.4672 93.9578 24.4099 89.802 29.4996 86.9672C28.9002 85.1549 28.5982 84.0564 28.5982 84.0564C28.5982 84.0564 35.9452 77.8005 51.5096 77.6192C51.5436 77.625 51.5832 77.5968 51.6172 77.6026C51.2837 77.511 50.9163 77.4136 50.5885 77.2881C12.8469 65.2168 22.593 15.4913 22.593 15.4913C22.9099 15.4754 23.1928 15.4537 23.5097 15.4377C23.1928 15.4537 22.8759 15.4696 22.593 15.4913C22.593 15.4913 22.8542 15.1867 23.4099 14.7925C23.4099 14.7925 24.922 2.20393 33.2943 2.44051C41.7685 2.69439 43.4266 14.7049 43.624 16.6234C50.4836 17.5452 63.4364 20.2011 86.3482 27.5172C86.3482 27.5172 86.2745 27.5396 86.1273 27.5844C87.3198 27.9617 88.5065 28.3729 89.6651 28.7444L86.3482 27.5172C86.699 27.5071 87.0158 27.4911 87.3327 27.4752C87.3327 27.4752 95.3705 14.0762 104.584 16.5502C113.566 18.9499 112.662 30.8389 112.037 35.1309C112.966 36.4408 113.15 37.4145 113.15 37.4145C113.15 37.4145 96.8986 76.33 66.7403 79.1963C70.1834 79.8864 73.8916 80.8659 77.4627 82.241L77.4287 82.2352C78.1578 82.4639 78.8811 82.7265 79.6044 82.9891C79.6044 82.9891 79.467 85.2346 78.9638 88.6048C83.7134 92.903 91.5003 104.385 94.067 111.872C97.6926 122.576 96.0253 146.344 91.1589 143.143C87.828 140.971 79.8344 116.538 76.4692 100.607C75.2617 104.835 73.7652 107.478 73.7197 107.54C71.7254 111.879 69.0763 115.757 65.5435 118.263C63.2514 120.247 61.0306 121.196 59.3458 120.839C58.9495 120.912 58.5251 120.944 58.0949 121.011C57.7383 121.055 57.3875 121.065 57.0028 121.069C53.642 121.126 50.512 119.826 47.69 117.741C47.69 117.741 40.3375 113.559 33.0498 96.472C23.6939 109.821 7.04374 128.912 3.15473 129.612C-0.683054 130.216 1.47624 120.391 5.56797 111.312Z" fill="url(#paint1_linear_24_1079)"/>
<path fill-rule="evenodd" clip-rule="evenodd" d="M79.0041 82.4335C79.0041 82.4335 58.5173 84.4658 48.6692 82.233C38.7872 79.9944 53.7247 77.7517 53.7247 77.7517C53.7247 77.7517 67.11 77.8632 79.0041 82.4335Z" fill="#7766B6"/>
<path opacity="0.5" fill-rule="evenodd" clip-rule="evenodd" d="M74.5023 88.789C74.5023 88.789 72.276 94.9029 75.2607 107.732C75.2607 107.732 80.0966 99.4089 79.4594 88.3752C79.4933 88.3809 77.3202 85.1492 74.5023 88.789Z" fill="#7766B6"/>
<path fill-rule="evenodd" clip-rule="evenodd" d="M79.5396 84.6191C79.5396 84.6191 49.3572 98.7207 58.4503 118.941C62.2918 127.553 80.5381 109.746 79.5396 84.6191Z" fill="url(#paint2_linear_24_1079)"/>
<path fill-rule="evenodd" clip-rule="evenodd" d="M79.6798 84.6084C79.6798 84.6084 71.7885 85.6409 74.6239 95.8637C74.6297 95.8298 81.2134 93.2483 79.6798 84.6084Z" fill="url(#paint3_linear_24_1079)"/>
<path fill-rule="evenodd" clip-rule="evenodd" d="M31.3144 88.0094C31.3144 88.0094 44.5993 108.419 49.2357 117.899C49.2357 117.899 39.5286 112.374 31.3144 88.0094Z" fill="url(#paint4_linear_24_1079)"/>
<path fill-rule="evenodd" clip-rule="evenodd" d="M4.69998 129.769C8.62276 129.075 25.4541 109.736 34.7757 96.3814L31.3125 88.0087C31.3068 88.0426 8.91626 99.8388 4.69998 129.769Z" fill="url(#paint5_linear_24_1079)"/>
<path d="M59.5913 121.264L59.7161 121.146C59.6598 121.066 53.5436 114.337 58.4599 103.898C64.39 91.398 81.0091 83.3678 81.196 83.2949L81.1173 83.1419C80.9643 83.2206 64.2716 91.2732 58.2961 103.836C53.2946 114.364 59.501 121.179 59.5913 121.264Z" fill="#6048FF"/>
<path d="M49.1536 117.955L49.3066 117.876C41.2645 103.175 31.4641 88.1398 31.3854 87.9868L31.2266 88.0994C31.345 88.2243 41.1455 103.26 49.1536 117.955Z" fill="#6048FF"/>
<path fill-rule="evenodd" clip-rule="evenodd" d="M16.0403 97.9788C16.0403 97.9788 14.1978 104.298 12.7524 106.846C11.3069 109.393 7.16947 111.552 7.16947 111.552C7.16947 111.552 11.9097 101.536 16.0403 97.9788Z" fill="white"/>
<path fill-rule="evenodd" clip-rule="evenodd" d="M44.4739 86.1624C44.4739 86.1624 43.2321 83.4021 36.8017 85.4866C36.8356 85.4924 41.5466 86.5377 44.4739 86.1624Z" fill="white"/>
<path fill-rule="evenodd" clip-rule="evenodd" d="M85.8447 126.778L82.2163 115.059C82.2163 115.059 86.8299 121.394 85.8447 126.778Z" fill="white"/>
<path fill-rule="evenodd" clip-rule="evenodd" d="M44.6845 113.253C44.6845 113.253 40.247 108.343 38.6868 104.377C38.7208 104.383 42.0995 107.715 44.6845 113.253Z" fill="white"/>
<path fill-rule="evenodd" clip-rule="evenodd" d="M24.9451 15.0177C24.9451 15.0177 26.4571 2.42955 34.8291 2.66609C44.0326 2.93927 45.2197 17.1033 45.2197 17.1033L24.9451 15.0177Z" fill="url(#paint6_linear_24_1079)"/>
<path fill-rule="evenodd" clip-rule="evenodd" d="M88.8703 27.6673C88.8703 27.6673 96.9079 14.2685 106.121 16.7425C117.138 19.6975 113.269 36.9117 113.269 36.9117L88.8703 27.6673Z" fill="url(#paint7_linear_24_1079)"/>
<path fill-rule="evenodd" clip-rule="evenodd" d="M84.9738 45.26C95.1406 53.8301 70.8099 73.9536 46.2196 67.8881C19.9503 61.4324 24.7759 32.0239 27.2506 29.5822C29.7591 27.1464 72.46 34.6852 84.9738 45.26Z" fill="url(#paint8_linear_24_1079)"/>
<path fill-rule="evenodd" clip-rule="evenodd" d="M24.1276 15.7165C24.1276 15.7165 31.8319 7.35745 45.1852 17.0974C45.1852 17.0974 32.5074 15.2911 24.1276 15.7165Z" fill="url(#paint9_radial_24_1079)"/>
<path fill-rule="evenodd" clip-rule="evenodd" d="M114.684 37.6407C114.684 37.6407 112.282 26.516 87.8825 27.7435L114.684 37.6407Z" fill="url(#paint10_radial_24_1079)"/>
<path d="M62.4334 64.7101L62.6369 64.7447L62.8511 63.2801L62.6814 63.2513L62.5118 63.2224C62.41 63.2051 62.2743 63.1821 62.1783 63.1308L61.8285 64.5723C61.9642 64.5954 62.0941 64.6524 62.2298 64.6755L62.4334 64.7101ZM63.4627 64.8153C63.7399 64.8275 64.017 64.8397 64.266 64.8122L64.169 63.3297C63.9597 63.329 63.7107 63.3565 63.5072 63.3218L63.4627 64.8153ZM61.0655 64.3379L61.5792 62.9592C61.3814 62.8906 61.1554 62.7824 60.9576 62.7139L60.3141 64.0356C60.54 64.1438 60.7999 64.2578 61.0655 64.3379ZM65.0867 64.7074C65.3415 64.646 65.6302 64.5903 65.885 64.5289L65.4993 63.102C65.2785 63.1692 65.0633 63.2024 64.8483 63.2357L65.0867 64.7074ZM59.5799 63.6316L60.3535 62.3668C60.1615 62.2644 59.9752 62.128 59.7889 61.9916L58.8912 63.1654C59.1396 63.3473 59.3597 63.4894 59.5799 63.6316ZM66.6551 64.3108C66.9157 64.2155 67.1423 64.1144 67.4086 63.9851L66.7624 62.6535C66.5697 62.7604 66.3488 62.8276 66.1222 62.9287L66.6551 64.3108ZM58.2819 62.6429L59.2699 61.5543C59.1233 61.3897 58.9371 61.2534 58.7905 61.0888L57.7123 62.0923C57.8928 62.2626 58.1015 62.4726 58.2819 62.6429ZM68.1 63.614C68.3324 63.479 68.5648 63.3439 68.7691 63.1692L67.9301 61.9445C67.7317 62.0853 67.539 62.1922 67.3463 62.299L68.1 63.614ZM57.194 61.4457L58.3566 60.5613C58.2101 60.3967 58.0693 60.1983 57.9624 60.0056L56.7095 60.8048C56.8785 61.043 57.0532 61.2472 57.194 61.4457ZM69.4099 62.6848C69.6142 62.5101 69.8184 62.3353 70.0227 62.1606L69.0192 61.0825C68.8546 61.229 68.6843 61.4095 68.4858 61.5503L69.4099 62.6848ZM56.3384 60.1134L57.6418 59.4275C57.535 59.2348 57.4339 59.0081 57.327 58.8154L56.0012 59.4278C56.0684 59.6486 56.2034 59.881 56.3384 60.1134ZM70.5733 61.591C70.7436 61.4105 70.9197 61.1961 71.0958 60.9817L69.9616 60.0559C69.8252 60.2421 69.6549 60.4226 69.5243 60.5749L70.5733 61.591ZM55.6755 58.6743L57.0519 58.1753C56.9848 57.9544 56.9176 57.7336 56.8504 57.5127L55.4516 57.9381C55.4791 58.1871 55.5802 58.4137 55.6755 58.6743ZM71.5504 60.3609C71.6925 60.1407 71.8347 59.9205 71.9769 59.7004L70.7121 58.9268C70.5757 59.1131 70.4675 59.339 70.3311 59.5253L71.5504 60.3609ZM55.2335 57.168L56.6828 56.8559C56.6156 56.635 56.5824 56.42 56.5549 56.1709L55.0832 56.4094C55.1165 56.6245 55.1721 56.9132 55.2335 57.168ZM72.3694 59.0341C72.4776 58.8081 72.6255 58.554 72.6998 58.3223L71.3723 57.7127C71.2641 57.9386 71.1616 58.1306 71.0592 58.3226L72.3694 59.0341ZM54.9784 55.5888L56.4328 55.452C56.4053 55.203 56.406 54.9937 56.3785 54.7447L54.9018 54.8078C54.9235 55.0907 54.9509 55.3397 54.9784 55.5888ZM73.0361 57.5766C73.1104 57.3449 73.2243 57.085 73.3044 56.8194L71.9142 56.3736C71.8399 56.6053 71.7713 56.8031 71.697 57.0348L73.0361 57.5766ZM54.8987 54.0044L56.3582 54.0431C56.3647 53.7999 56.3654 53.5906 56.4057 53.3531L54.9239 53.2408C54.9174 53.484 54.9052 53.7612 54.8987 54.0044ZM73.4992 56.0846C73.5793 55.8189 73.6196 55.5815 73.6658 55.3101L72.2127 55.0281C72.1723 55.2656 72.098 55.4973 72.0634 55.7009L73.4992 56.0846ZM55.0226 52.4547L56.4872 52.6688C56.5102 52.5331 56.5333 52.3974 56.5506 52.2956C56.5679 52.1938 56.5852 52.0921 56.6025 51.9903L55.1553 51.6744L55.1495 51.7084C55.1322 51.8101 55.1091 51.9458 55.0918 52.0476C55.0687 52.1833 55.0457 52.319 55.0226 52.4547ZM72.362 54.3554L73.8266 54.5695C73.8727 54.2981 73.8792 54.0548 73.9253 53.7834L72.4435 53.6711C72.4088 53.8747 72.4024 54.1179 72.362 54.3554ZM56.7634 51.2497C56.8377 51.018 56.8781 50.7805 56.9466 50.5827L55.5563 50.1369C55.482 50.3686 55.402 50.6343 55.3219 50.8999L56.7634 51.2497ZM72.4628 52.9414L73.9223 52.9801C73.9345 52.7029 73.941 52.4596 73.9193 52.1767L72.4425 52.2398C72.47 52.4888 72.4635 52.732 72.4628 52.9414ZM57.2034 49.8933C57.2777 49.6616 57.3802 49.4696 57.4884 49.2437L56.1609 48.634C56.0527 48.86 55.9387 49.1198 55.8644 49.3515L57.2034 49.8933ZM72.4164 51.5721L73.8708 51.4354C73.8433 51.1864 73.8216 50.9035 73.7602 50.6487L72.2885 50.8872C72.3557 51.108 72.3889 51.3231 72.4164 51.5721ZM57.7676 48.6279C57.8701 48.4359 57.9783 48.21 58.1147 48.0237L56.85 47.2502C56.7078 47.4704 56.5996 47.6963 56.4517 47.9504L57.7676 48.6279ZM72.2003 50.1741L73.6496 49.862C73.5882 49.6072 73.5268 49.3524 73.4654 49.0976L72.0666 49.523C72.0999 49.7381 72.1332 49.9532 72.2003 50.1741ZM58.4899 47.4592C58.6263 47.2729 58.7627 47.0867 58.8991 46.9004L57.765 45.9746C57.5889 46.189 57.4525 46.3753 57.2765 46.5897L58.4899 47.4592ZM71.7973 48.8489L73.1737 48.3499C73.0783 48.0893 72.9773 47.8627 72.8819 47.6022L71.5222 48.2087C71.629 48.4014 71.7301 48.6281 71.7973 48.8489ZM59.3761 46.3532C59.5464 46.1727 59.711 46.0262 59.8755 45.8796L58.872 44.8015C58.6678 44.9762 58.4975 45.1567 58.3214 45.3711L59.3761 46.3532ZM71.2413 47.6025L72.5447 46.9165C72.4097 46.6841 72.2747 46.4517 72.1397 46.2193L70.8868 47.0186C70.9994 47.1774 71.1402 47.3759 71.2413 47.6025ZM60.3749 45.406C60.5394 45.2595 60.7379 45.1187 60.9364 44.9779L60.0974 43.7532C59.899 43.894 59.6608 44.0629 59.4566 44.2376L60.3749 45.406ZM70.4983 46.429L71.661 45.5446C71.4863 45.3403 71.3116 45.1361 71.1368 44.9319L70.0587 45.9354C70.211 46.066 70.3518 46.2645 70.4983 46.429ZM61.5145 44.6573C61.7072 44.5504 61.8999 44.4436 62.1265 44.3425L61.4803 43.0109C61.2536 43.112 60.9873 43.2413 60.7549 43.3763L61.5145 44.6573ZM69.5851 45.436L70.573 44.3473C70.3586 44.1712 70.1782 44.0009 69.9638 43.8249L69.066 44.9987C69.2523 45.1351 69.4385 45.2714 69.5851 45.436ZM62.7328 44.0616C62.9536 43.9944 63.1745 43.9273 63.3614 43.8543L62.9757 42.4274C62.7209 42.4888 62.4604 42.5841 62.1999 42.6795L62.7328 44.0616ZM68.5015 44.6234L69.275 43.3587C69.0549 43.2166 68.8008 43.0686 68.5748 42.9604L67.9312 44.2822C68.1232 44.3846 68.3153 44.4871 68.5015 44.6234ZM64.0464 43.7264C64.2615 43.6932 64.4766 43.6599 64.7198 43.6664L64.6228 42.1838C64.3399 42.2055 64.0909 42.233 63.8022 42.2886L64.0464 43.7264ZM67.3097 44.0369L67.8234 42.6581C67.5577 42.5781 67.2921 42.498 67.0265 42.4179L66.6767 43.8594C66.9142 43.8998 67.112 43.9683 67.3097 44.0369ZM65.3536 43.6345C65.5629 43.6352 65.8004 43.6755 66.0039 43.7102L66.218 42.2456C65.9466 42.1994 65.6695 42.1872 65.3923 42.175L65.3536 43.6345Z" fill="#1BF4F6"/>
<path d="M33.2408 56.9557L33.6245 55.5199C33.4267 55.4514 33.2289 55.3829 33.0651 55.3201L32.4215 56.6418C32.6813 56.7558 32.9412 56.8698 33.2408 56.9557ZM34.0269 57.0544L34.1286 57.0717C34.4058 57.0839 34.7226 57.068 35.0114 57.0123L34.8068 55.5464C34.6257 55.5854 34.4503 55.5905 34.2749 55.5956L34.1731 55.5783L34.1877 56.3138L34.0269 57.0544ZM31.6592 56.1981L32.5287 54.9846C32.3764 54.854 32.1902 54.7176 32.0378 54.587L31.016 55.6699C31.1964 55.8402 31.4448 56.022 31.6592 56.1981ZM35.8833 56.8115C36.1438 56.7162 36.4101 56.5869 36.6764 56.4577L35.9508 55.1824C35.7581 55.2893 35.5712 55.3622 35.3843 55.4351L35.8833 56.8115ZM30.424 55.0456L31.5643 54.0876C31.4177 53.923 31.2769 53.7246 31.1643 53.5658L29.9395 54.4048C30.0746 54.6372 30.2493 54.8414 30.424 55.0456ZM37.3513 55.979C37.5555 55.8043 37.7937 55.6353 37.9697 55.4209L36.9266 54.3709C36.762 54.5175 36.5974 54.664 36.4329 54.8106L37.3513 55.979ZM29.5005 53.7018L30.7758 52.9762C30.669 52.7835 30.5621 52.5908 30.461 52.3642L29.1352 52.9765C29.2644 53.2428 29.3655 53.4694 29.5005 53.7018ZM38.5543 54.8571C38.7304 54.6427 38.9065 54.4283 39.0486 54.2081L37.8293 53.3725C37.693 53.5587 37.5566 53.745 37.4202 53.9312L38.5543 54.8571ZM28.8377 52.2627L30.2198 51.7297C30.1527 51.5089 30.0516 51.2823 29.9844 51.0614L28.5798 51.5207C28.6412 51.7755 28.7366 52.0361 28.8377 52.2627ZM39.4808 53.5136C39.623 53.2935 39.7312 53.0675 39.8791 52.8134L38.5632 52.1359C38.455 52.3618 38.3525 52.5539 38.2161 52.7401L39.4808 53.5136ZM28.322 50.7788L29.749 50.3931C29.6818 50.1722 29.6146 49.9513 29.5871 49.7023L28.1378 50.0144C28.1992 50.2692 28.2606 50.524 28.322 50.7788ZM40.2038 52.1356C40.312 51.9096 40.3921 51.644 40.5003 51.4181L39.1216 50.9044C39.0473 51.1361 38.9391 51.3621 38.8706 51.5599L40.2038 52.1356ZM28.0273 49.2277L29.499 48.9892C29.4657 48.7741 29.4383 48.5251 29.4108 48.2761L27.9506 48.4467C27.9384 48.7239 27.9659 48.9729 28.0273 49.2277ZM40.7687 50.6608C40.843 50.4291 40.9231 50.1635 40.9974 49.9318L39.5617 49.5481C39.4874 49.7798 39.447 50.0173 39.3727 50.249L40.7687 50.6608ZM27.8343 47.6939L29.3168 47.5969C29.2893 47.3479 29.29 47.1386 29.2625 46.8896L27.7915 46.9187C27.7851 47.162 27.8068 47.4449 27.8343 47.6939ZM41.164 49.1573C41.2044 48.9198 41.2845 48.6541 41.3306 48.3827L39.8718 48.1347C39.8314 48.3722 39.791 48.6097 39.7167 48.8414L41.164 49.1573ZM27.7827 46.1493L29.248 46.1541C29.2544 45.9108 29.2609 45.6676 29.2673 45.4243L27.7854 45.312L27.7739 45.3798C27.8014 45.6289 27.7949 45.8721 27.7827 46.1493ZM39.9929 47.4223L41.4633 47.6025C41.5036 47.365 41.5159 47.0878 41.562 46.8164L40.0859 46.6702C40.0397 46.9416 39.9994 47.179 39.9929 47.4223ZM27.8503 44.5202L29.3264 44.6664C29.3329 44.4232 29.3732 44.1857 29.4136 43.9482L27.9433 43.7681C27.9029 44.0055 27.8907 44.2827 27.8503 44.5202ZM40.0995 45.9744L40.8235 46.0276L41.5532 46.047C41.5654 45.7698 41.5719 45.5265 41.5783 45.2833L40.1131 45.2785C40.1463 45.4936 40.106 45.7311 40.0995 45.9744ZM29.5289 43.2697C29.5693 43.0322 29.6097 42.7947 29.684 42.563L28.2367 42.2472C28.1964 42.4847 28.1163 42.7503 28.0702 43.0217L29.5289 43.2697ZM40.1324 44.5488L41.6035 44.5196C41.6099 44.2764 41.5882 43.9934 41.5607 43.7444L40.0782 43.8414C40.1056 44.0905 40.1049 44.2998 40.1324 44.5488ZM29.8391 41.8564C29.9134 41.6246 29.9877 41.3929 30.028 41.1555L28.6378 40.7097C28.5635 40.9414 28.4834 41.207 28.4091 41.4387L29.8391 41.8564ZM40.0239 43.1341L41.4841 42.9635C41.4566 42.7144 41.4349 42.4315 41.3735 42.1767L39.9018 42.4152C39.9632 42.67 39.9964 42.8851 40.0239 43.1341ZM30.2791 40.5C30.3534 40.2683 30.4559 40.0763 30.5641 39.8503L29.2027 39.2349C29.0945 39.4609 28.9805 39.7207 28.9062 39.9524L30.2791 40.5ZM39.8078 41.736L41.2572 41.4239C41.1958 41.1691 41.1344 40.9144 41.073 40.6596L39.646 41.0453C39.6793 41.2604 39.7464 41.4812 39.8078 41.736ZM30.8433 39.2346C30.9516 39.0087 31.054 38.8166 31.1904 38.6304L29.9257 37.8569C29.7835 38.077 29.6753 38.303 29.5274 38.5571L30.8433 39.2346ZM39.4503 40.3488L40.8548 39.8895C40.7595 39.6289 40.6981 39.3741 40.597 39.1475L39.2148 39.6805C39.282 39.9013 39.3492 40.1222 39.4503 40.3488ZM31.5714 38.0319C31.7078 37.8457 31.8442 37.6594 31.9806 37.4732L30.8522 36.5134C30.6761 36.7278 30.5058 36.9083 30.3579 37.1624L31.5714 38.0319ZM38.934 39.0742L40.2598 38.4619C40.1305 38.1955 40.0294 37.9689 39.8944 37.7365L38.6192 38.4622C38.7318 38.621 38.8329 38.8476 38.934 39.0742ZM32.4461 36.9938C32.6106 36.8473 32.7751 36.7007 32.9397 36.5542L32.0553 35.3915C31.851 35.5662 31.6129 35.7352 31.4368 35.9496L32.4461 36.9938ZM38.2365 37.8386L39.4612 36.9997C39.2923 36.7615 39.1515 36.563 38.9768 36.3588L37.8423 37.2829C37.9831 37.4814 38.1239 37.6799 38.2365 37.8386ZM33.4839 36.2278C33.6766 36.1209 33.8635 36.048 34.0504 35.9751L33.5514 34.5987C33.2909 34.694 33.0245 34.8233 32.7582 34.9525L33.4839 36.2278ZM37.3968 36.8232L38.4187 35.7403C38.2101 35.5303 37.9957 35.3543 37.7755 35.2121L36.906 36.4256C37.0583 36.5562 37.2445 36.6926 37.3968 36.8232ZM34.6336 35.8299C34.8148 35.7908 35.0241 35.7915 35.1995 35.7864L35.3118 34.3046L35.2925 35.0343L35.3118 34.3046C35.0007 34.2866 34.7178 34.3083 34.4349 34.33L34.6336 35.8299ZM36.3696 36.0901L37.0132 34.7683C36.7533 34.6544 36.4595 34.5346 36.1939 34.4545L35.8102 35.8903C35.974 35.953 36.1718 36.0216 36.3696 36.0901Z" fill="#1BF4F6"/>
<path fill-rule="evenodd" clip-rule="evenodd" d="M87.8869 27.7094C87.8869 27.7094 65.6556 33.8433 52.0869 29.2676C38.524 24.6579 38.4604 16.4091 38.4604 16.4091C38.4604 16.4091 48.3201 15.0834 87.8869 27.7094Z" fill="url(#paint11_linear_24_1079)"/>
<path d="M56.3945 30.4187C69.2865 32.6105 87.6888 27.8502 87.9097 27.783L87.8707 27.6018C87.6498 27.669 66.3257 33.1892 53.5685 29.5892C40.8395 26.0289 38.4604 18.2591 38.5344 16.3867L38.359 16.3918C38.3132 18.3039 40.6749 26.1754 53.5339 29.7928C54.4326 30.0503 55.4107 30.2515 56.3945 30.4187Z" fill="#6048FF"/>
<path fill-rule="evenodd" clip-rule="evenodd" d="M104.509 49.8387C104.509 49.8387 101.802 57.5475 94.2371 62.8245C94.2768 62.7963 95.9399 54.2468 104.509 49.8387Z" fill="white"/>
<path fill-rule="evenodd" clip-rule="evenodd" d="M92.2955 64.2028C92.2955 64.2028 92.1981 68.0617 89.1349 68.6232C89.1349 68.6232 89.5106 66.2082 92.2955 64.2028Z" fill="white"/>
<path fill-rule="evenodd" clip-rule="evenodd" d="M26.4327 19.1809C26.4327 19.1809 26.3386 25.4842 24.4423 30.8875C24.4423 30.8875 22.53 23.8591 26.4327 19.1809Z" fill="white"/>
<path fill-rule="evenodd" clip-rule="evenodd" d="M49.3064 27.7488C49.3064 27.7488 41.8301 24.6972 39.2517 18.9172C39.2517 18.9172 43.2112 24.5829 49.3064 27.7488Z" fill="white"/>
<path fill-rule="evenodd" clip-rule="evenodd" d="M67.3075 31.9247C67.3075 31.9247 52.2885 33.211 46.0114 27.222C46.0172 27.1881 51.832 30.9692 67.3075 31.9247Z" fill="white"/>
<path fill-rule="evenodd" clip-rule="evenodd" d="M68.9756 91.7244C68.9756 91.7244 54.356 102.364 57.4897 116.37C57.4897 116.37 54.8428 104.017 68.9756 91.7244Z" fill="url(#paint12_linear_24_1079)"/>
<path d="M35.7466 85.5513C57.6968 89.2831 79.2303 83.7635 79.4511 83.6964L79.4121 83.5152C79.1573 83.5766 53.8642 90.0627 30.1502 84.181L30.1214 84.3506C31.9924 84.8433 33.8807 85.2341 35.7466 85.5513Z" fill="#6048FF"/>
<path fill-rule="evenodd" clip-rule="evenodd" d="M74.2009 85.2124C74.2009 85.2124 51.4001 91.0048 33.4967 85.2384C33.5024 85.2045 47.4676 89.4985 74.2009 85.2124Z" fill="white"/>
<path fill-rule="evenodd" clip-rule="evenodd" d="M52.6558 87.1005C52.6558 87.1005 48.5134 88.8752 44.1797 86.8466C44.2136 86.8523 49.713 87.1588 52.6558 87.1005Z" fill="white"/>
<path fill-rule="evenodd" clip-rule="evenodd" d="M73.5048 23.4144C73.5048 23.4144 49.5733 20.0439 46.1255 17.3284C46.1255 17.3284 57.8632 19.5334 73.5048 23.4144Z" fill="white"/>
<path fill-rule="evenodd" clip-rule="evenodd" d="M55.3904 34.6809C55.3904 34.6809 47.1057 36.5892 44.3702 32.144C44.3702 32.144 49.3416 32.8844 55.3904 34.6809Z" fill="white"/>
</g>
<defs>
<linearGradient id="paint0_linear_24_1079" x1="100.178" y1="151.43" x2="15.7113" y2="115.334" gradientUnits="userSpaceOnUse">
<stop stop-color="#09E8F9"/>
<stop offset="0.5538" stop-color="#6331BC"/>
<stop offset="1" stop-color="#EC24A1"/>
</linearGradient>
<linearGradient id="paint1_linear_24_1079" x1="96.0406" y1="150.726" x2="11.5742" y2="114.63" gradientUnits="userSpaceOnUse">
<stop stop-color="#09E8F9"/>
<stop offset="0.5538" stop-color="#6331BC"/>
<stop offset="1" stop-color="#EC24A1"/>
</linearGradient>
<linearGradient id="paint2_linear_24_1079" x1="69.3854" y1="120.692" x2="67.401" y2="85.2846" gradientUnits="userSpaceOnUse">
<stop stop-color="white"/>
<stop offset="0.2773" stop-color="#F1ECFF"/>
<stop offset="0.8363" stop-color="#CDBBFF"/>
<stop offset="1" stop-color="#C2ACFF"/>
</linearGradient>
<linearGradient id="paint3_linear_24_1079" x1="79.5516" y1="90.5502" x2="74.189" y2="89.8005" gradientUnits="userSpaceOnUse">
<stop stop-color="#4A1BE1"/>
<stop offset="0.3618" stop-color="#4613CE"/>
<stop offset="1" stop-color="#3D00A4"/>
</linearGradient>
<linearGradient id="paint4_linear_24_1079" x1="41.1494" y1="118.364" x2="39.4238" y2="87.5737" gradientUnits="userSpaceOnUse">
<stop stop-color="white"/>
<stop offset="0.2773" stop-color="#F1ECFF"/>
<stop offset="0.8363" stop-color="#CDBBFF"/>
<stop offset="1" stop-color="#C2ACFF"/>
</linearGradient>
<linearGradient id="paint5_linear_24_1079" x1="28.64" y1="135.662" x2="6.54493" y2="127.856" gradientUnits="userSpaceOnUse">
<stop stop-color="#09E8F9"/>
<stop offset="0.5538" stop-color="#6331BC"/>
<stop offset="1" stop-color="#EC24A1"/>
</linearGradient>
<linearGradient id="paint6_linear_24_1079" x1="45.3488" y1="19.0424" x2="30.5469" y2="8.58518" gradientUnits="userSpaceOnUse">
<stop stop-color="#09E8F9"/>
<stop offset="0.5538" stop-color="#6331BC"/>
<stop offset="1" stop-color="#EC24A1"/>
</linearGradient>
<linearGradient id="paint7_linear_24_1079" x1="113.725" y1="37.7371" x2="94.5357" y2="24.8959" gradientUnits="userSpaceOnUse">
<stop stop-color="#09E8F9"/>
<stop offset="0.5538" stop-color="#6331BC"/>
<stop offset="1" stop-color="#EC24A1"/>
</linearGradient>
<linearGradient id="paint8_linear_24_1079" x1="49.4472" y1="68.7639" x2="58.7474" y2="34.1294" gradientUnits="userSpaceOnUse">
<stop stop-color="#4A00C6"/>
<stop offset="0.2424" stop-color="#1B1328"/>
<stop offset="0.7307" stop-color="#290082"/>
<stop offset="1" stop-color="#1B0065"/>
</linearGradient>
<radialGradient id="paint9_radial_24_1079" cx="0" cy="0" r="1" gradientUnits="userSpaceOnUse" gradientTransform="translate(34.9079 15.4983) rotate(-164.971) scale(7.75108 6.42016)">
<stop stop-color="#C7D3FF"/>
<stop offset="0.3836" stop-color="#C1C0FF"/>
<stop offset="1" stop-color="#B69AFF"/>
</radialGradient>
<radialGradient id="paint10_radial_24_1079" cx="0" cy="0" r="1" gradientUnits="userSpaceOnUse" gradientTransform="translate(108.343 33.6683) rotate(-164.971) scale(10.319 8.54718)">
<stop stop-color="#C7D3FF"/>
<stop offset="0.3836" stop-color="#C1C0FF"/>
<stop offset="1" stop-color="#B69AFF"/>
</radialGradient>
<linearGradient id="paint11_linear_24_1079" x1="61.6055" y1="31.2262" x2="63.53" y2="19.9061" gradientUnits="userSpaceOnUse">
<stop stop-color="#D4BFFF"/>
<stop offset="0.9905" stop-color="#C2ACFF"/>
<stop offset="1" stop-color="#C2ACFF"/>
</linearGradient>
<linearGradient id="paint12_linear_24_1079" x1="66.7616" y1="104.658" x2="58.3315" y2="103.224" gradientUnits="userSpaceOnUse">
<stop stop-color="#C7D3FF"/>
<stop offset="0.3129" stop-color="#C1C0FF"/>
<stop offset="0.8156" stop-color="#B69AFF"/>
<stop offset="0.986" stop-color="#B6DEFF"/>
</linearGradient>
</defs>
</svg>
