<svg width="33" height="33" viewBox="0 0 33 33" fill="none" xmlns="http://www.w3.org/2000/svg">
<g clip-path="url(#clip0_24_1017)">
<path d="M10.5867 27.9118C10.5867 28.4376 10.1605 28.8638 9.63469 28.8638H4.12101C3.59523 28.8638 3.16901 28.4376 3.16901 27.9118V13.6318C3.16901 13.106 3.59523 12.6798 4.12101 12.6798H9.63469C10.1605 12.6798 10.5867 13.106 10.5867 13.6318V27.9118ZM20.3645 5.53977C20.3645 5.01399 19.9383 4.58777 19.4125 4.58777H13.8989C13.3731 4.58777 12.9469 5.01399 12.9469 5.53977V27.9118C12.9469 28.4376 13.3731 28.8638 13.8989 28.8638H19.4125C19.9383 28.8638 20.3645 28.4376 20.3645 27.9118V5.53977ZM30.1424 16.3291C30.1424 15.8034 29.7162 15.3771 29.1904 15.3771H23.6767C23.1509 15.3771 22.7247 15.8034 22.7247 16.3291V27.9118C22.7247 28.4376 23.1509 28.8638 23.6767 28.8638H29.1904C29.7162 28.8638 30.1424 28.4376 30.1424 27.9118V16.3291Z" fill="white"/>
</g>
<defs>
<clipPath id="clip0_24_1017">
<rect width="32.3681" height="32.3681" fill="white" transform="translate(0.47168 0.541748)"/>
</clipPath>
</defs>
</svg>
