<svg width="33" height="33" viewBox="0 0 33 33" fill="none" xmlns="http://www.w3.org/2000/svg">
<g opacity="0.5">
<g clip-path="url(#clip0_24_1048)">
<path d="M30.1223 5.84028C30.1223 4.35675 28.922 3.14294 27.4385 3.14294H5.85975C4.37622 3.14294 3.16241 4.35675 3.16241 5.84028V22.0243C3.16241 23.5079 4.37622 24.7217 5.85975 24.7217H24.3468C24.5993 24.7217 24.8414 24.822 25.02 25.0005L28.5094 28.4899C29.1093 29.0898 30.135 28.6646 30.1345 27.8162L30.1223 5.84028ZM24.7411 18.375C24.7411 18.9008 24.3149 19.327 23.7891 19.327H9.5091C8.98332 19.327 8.55709 18.9008 8.55709 18.375V17.5816C8.55709 17.0559 8.98332 16.6296 9.5091 16.6296H23.7891C24.3149 16.6296 24.7411 17.0559 24.7411 17.5816V18.375ZM24.7411 14.329C24.7411 14.8547 24.3149 15.281 23.7891 15.281H9.5091C8.98332 15.281 8.55709 14.8547 8.55709 14.329V13.5356C8.55709 13.0099 8.98332 12.5836 9.5091 12.5836H23.7891C24.3149 12.5836 24.7411 13.0099 24.7411 13.5356V14.329ZM24.7411 10.283C24.7411 10.8087 24.3149 11.235 23.7891 11.235H9.5091C8.98332 11.235 8.55709 10.8087 8.55709 10.283V9.48962C8.55709 8.96385 8.98332 8.53762 9.5091 8.53762H23.7891C24.3149 8.53762 24.7411 8.96385 24.7411 9.48963V10.283Z" fill="white"/>
</g>
</g>
<defs>
<clipPath id="clip0_24_1048">
<rect width="32.3681" height="32.3681" fill="white" transform="translate(0.465073 0.445557)"/>
</clipPath>
</defs>
</svg>
