<svg width="35" height="35" viewBox="0 0 35 35" fill="none" xmlns="http://www.w3.org/2000/svg">
<g opacity="0.5">
<g clip-path="url(#clip0_24_1022)">
<path fill-rule="evenodd" clip-rule="evenodd" d="M23.8831 19.3392C25.8395 20.6673 27.2103 22.4666 27.2103 24.8656V29.1496H32.9223V24.8656C32.9223 21.7526 27.8244 19.9104 23.8831 19.3392Z" fill="white"/>
<path d="M12.9303 17.7257C16.085 17.7257 18.6423 15.1683 18.6423 12.0136C18.6423 8.85899 16.085 6.30164 12.9303 6.30164C9.77565 6.30164 7.21829 8.85899 7.21829 12.0136C7.21829 15.1683 9.77565 17.7257 12.9303 17.7257Z" fill="white"/>
<path fill-rule="evenodd" clip-rule="evenodd" d="M21.4983 17.7257C24.6542 17.7257 27.2103 15.1695 27.2103 12.0136C27.2103 8.85776 24.6542 6.30164 21.4983 6.30164C20.8272 6.30164 20.1989 6.44444 19.5991 6.64436C20.7843 8.1152 21.4983 9.98588 21.4983 12.0136C21.4983 14.0414 20.7843 15.9121 19.5991 17.3829C20.1989 17.5829 20.8272 17.7257 21.4983 17.7257Z" fill="white"/>
<path fill-rule="evenodd" clip-rule="evenodd" d="M12.9303 19.1537C9.11754 19.1537 1.50629 21.0672 1.50629 24.8657V29.1497H24.3543V24.8657C24.3543 21.0672 16.7431 19.1537 12.9303 19.1537Z" fill="white"/>
</g>
</g>
<defs>
<clipPath id="clip0_24_1022">
<rect width="34.2721" height="34.2721" fill="white" transform="translate(0.0782776 0.5896)"/>
</clipPath>
</defs>
</svg>
