<svg width="32" height="27" viewBox="0 0 32 27" fill="none" xmlns="http://www.w3.org/2000/svg">
<path d="M17.1826 10.3707C7.65696 15.2796 13.9929 28.45 25.877 25.0117C26.9845 25.4418 27.971 26.139 29.0443 26.6572C28.7668 25.7233 28.4708 24.7999 28.1551 23.8805C31.8381 21.2564 32.6457 17.5432 31.2843 14.4917C29.1587 9.65519 22.3716 7.6743 17.1826 10.3707ZM20.5104 15.1822C20.2355 16.0438 18.9899 16.3016 18.3861 15.6465C17.7206 15.0402 17.9797 13.7735 18.8531 13.5025C19.8185 13.0948 20.9339 14.2141 20.5104 15.1822ZM26.7977 15.3059H26.8161C26.4781 16.078 25.3153 16.2595 24.7445 15.661C24.4696 15.4085 24.3893 15.0283 24.292 14.6969C24.4288 14.0918 24.8444 13.4644 25.5153 13.4355C26.4426 13.3066 27.2725 14.4562 26.7977 15.3059Z" fill="#19E1F2"/>
<path d="M23.2254 8.56879C22.6519 5.74867 20.6788 3.36656 18.1954 1.99201H18.2309V1.99069C9.41806 -2.98925 -1.55465 3.95715 0.565706 12.1492C1.13525 14.58 2.81628 16.6175 4.8564 17.9775C4.46179 19.0995 4.08692 20.2215 3.73177 21.3514C5.01424 20.678 6.29671 19.9743 7.5805 19.2903C9.11947 19.7862 10.7571 20.0282 12.3947 19.9743C10.3717 14.1709 15.5608 8.02292 23.2254 8.56879ZM15.2319 5.20016C16.2645 4.78451 17.4851 5.65396 17.4036 6.76544L17.4062 6.78122C17.4167 8.05054 15.7291 8.84239 14.7821 7.98214C13.7995 7.27448 14.0784 5.55531 15.2319 5.20016ZM9.43779 7.10348C9.21154 8.20575 7.73966 8.73847 6.8781 7.99793C5.87975 7.29158 6.15992 5.54084 7.3319 5.18438C8.48021 4.73979 9.78504 5.91046 9.43779 7.10348Z" fill="#19E1F2"/>
</svg>
