<svg width="28" height="28" viewBox="0 0 28 28" fill="none" xmlns="http://www.w3.org/2000/svg">
<g opacity="0.5">
<path d="M14.1908 27.7433C21.6593 27.7433 27.7105 21.6695 27.7105 14.1732C27.7105 6.67679 21.6593 0.603027 14.1908 0.603027C6.72232 0.603027 0.671143 6.67679 0.671143 14.1732C0.671143 21.6695 6.72232 27.7433 14.1908 27.7433ZM6.85752 13.8791L19.8927 8.83444C20.4978 8.61506 21.0261 8.98258 20.8301 9.90082L20.8312 9.89969L18.6118 20.3951C18.4473 21.1392 18.0068 21.3201 17.3905 20.9695L14.0106 18.4692L12.3803 20.0456C12.2 20.2266 12.048 20.3792 11.6987 20.3792L11.9387 16.9268L18.2028 11.2465C18.4754 11.0057 18.1419 10.87 17.7825 11.1097L10.0414 16.0017L6.7043 14.9568C5.97987 14.7261 5.9641 14.2297 6.85752 13.8791Z" fill="white"/>
</g>
</svg>
