<svg width="101" height="101" viewBox="0 0 101 101" fill="none" xmlns="http://www.w3.org/2000/svg">
<g opacity="0.8">
<circle cx="50.6289" cy="50.3564" r="46.9037" stroke="white" stroke-width="5.72781"/>
<g clip-path="url(#clip0_24_1821)">
<path d="M50.1768 49.3924C53.2092 49.3924 55.835 48.3048 57.9805 46.159C60.126 44.0135 61.2136 41.3884 61.2136 38.3556C61.2136 35.3239 60.126 32.6985 57.9801 30.5523C55.8343 28.4072 53.2088 27.3196 50.1768 27.3196C47.144 27.3196 44.5189 28.4072 42.3734 30.5526C40.2279 32.6981 39.14 35.3236 39.14 38.3556C39.14 41.3884 40.2279 44.0139 42.3737 46.1593C44.5196 48.3045 47.1451 49.3924 50.1768 49.3924Z" fill="white"/>
<path d="M69.4875 62.5542C69.4256 61.6614 69.3004 60.6874 69.1162 59.6589C68.9302 58.6227 68.6907 57.6431 68.404 56.7478C68.1079 55.8224 67.7052 54.9086 67.2074 54.0328C66.6907 53.1239 66.0838 52.3324 65.4028 51.6811C64.6906 50.9997 63.8187 50.4519 62.8105 50.0523C61.8057 49.6548 60.6923 49.4535 59.5012 49.4535C59.0334 49.4535 58.5811 49.6454 57.7074 50.2142C57.1697 50.5648 56.5408 50.9704 55.8388 51.4189C55.2385 51.8014 54.4254 52.1597 53.421 52.4841C52.4411 52.8012 51.4461 52.962 50.4641 52.962C49.4821 52.962 48.4875 52.8012 47.5065 52.4841C46.5031 52.16 45.69 51.8017 45.0904 51.4193C44.3951 50.9749 43.7658 50.5694 43.2201 50.2138C42.3475 49.6451 41.8947 49.4531 41.427 49.4531C40.2356 49.4531 39.1224 49.6548 38.118 50.0527C37.1105 50.4516 36.2383 50.9994 35.5254 51.6815C34.8448 52.3331 34.2375 53.1242 33.7215 54.0328C33.224 54.9086 32.8213 55.8221 32.5248 56.7482C32.2385 57.6435 31.999 58.6227 31.813 59.6589C31.6288 60.686 31.5037 61.6603 31.4418 62.5553C31.3809 63.4321 31.3502 64.3421 31.3502 65.2612C31.3502 67.6531 32.1106 69.5895 33.61 71.0176C35.0909 72.4268 37.0504 73.1418 39.4332 73.1418H61.497C63.8799 73.1418 65.8387 72.4272 67.3199 71.0176C68.8197 69.5906 69.5801 67.6538 69.5801 65.2608C69.5797 64.3375 69.5486 63.4268 69.4875 62.5542Z" fill="white"/>
</g>
</g>
<defs>
<clipPath id="clip0_24_1821">
<rect width="45.8225" height="45.8225" fill="white" transform="translate(27.5909 27.3193)"/>
</clipPath>
</defs>
</svg>
