<svg width="43" height="37" viewBox="0 0 43 37" fill="none" xmlns="http://www.w3.org/2000/svg">
<path d="M34.9906 29.9547C30.6606 29.9547 27.137 26.4211 27.137 22.079C27.137 17.7368 30.6606 14.2032 34.9906 14.2032H39.3537V10.7029C39.3537 8.77246 37.7882 7.20256 35.8632 7.20256H34.118V3.70223C34.118 1.7718 32.5525 0.201904 30.6275 0.201904H6.1941C3.6059 0.201904 1.46624 2.09908 1.04738 4.57557C1.00899 4.71908 0.958374 4.85909 0.958374 5.01486V31.7049C0.958374 34.5996 3.30747 36.9554 6.1941 36.9554H35.8632C37.7882 36.9554 39.3537 35.3855 39.3537 33.455V29.9547H34.9906ZM4.44886 5.4524C4.44886 4.48806 5.23072 3.70223 6.1941 3.70223H30.6275V7.20256H6.1941C5.23072 7.20256 4.44886 6.41674 4.44886 5.4524Z" fill="#EA3498"/>
<path d="M41.536 16.8286H34.9913C32.1047 16.8286 29.7556 19.1843 29.7556 22.0791C29.7556 24.9739 32.1047 27.3296 34.9913 27.3296H41.536C42.2585 27.3296 42.8449 26.7415 42.8449 26.017V18.1412C42.8449 17.4167 42.2585 16.8286 41.536 16.8286ZM34.9913 23.8293C34.028 23.8293 33.2461 23.0452 33.2461 22.0791C33.2461 21.113 34.028 20.3289 34.9913 20.3289C35.9547 20.3289 36.7366 21.113 36.7366 22.0791C36.7366 23.0452 35.9547 23.8293 34.9913 23.8293Z" fill="#EA3498"/>
</svg>
