<svg width="30" height="30" viewBox="0 0 30 30" fill="none" xmlns="http://www.w3.org/2000/svg">
<path opacity="0.8" fill-rule="evenodd" clip-rule="evenodd" d="M14.9327 0.445557C6.92091 0.445557 0.418579 6.94788 0.418579 14.9597C0.418579 22.9715 6.92091 29.4738 14.9327 29.4738C22.9445 29.4738 29.4468 22.9715 29.4468 14.9597C29.4468 6.94788 22.9445 0.445557 14.9327 0.445557ZM13.4818 24.9827C13.4818 25.7727 12.7862 26.3896 12.0212 26.1928C7.01367 24.9047 3.32144 20.368 3.32144 14.9598C3.32144 13.823 4.67601 13.4114 5.47982 14.2152L9.55246 18.2878C10.2096 18.945 10.5788 19.8363 10.5788 20.7657C10.5788 21.9079 11.2474 22.9015 12.2125 23.3746C12.8642 23.694 13.4818 24.257 13.4818 24.9827ZM25.5088 19.7472C24.8327 21.2301 22.3695 20.7661 20.7397 20.7661C19.9381 20.7661 19.2882 20.1163 19.2882 19.3147V16.4118C19.2882 15.6135 18.6351 14.9603 17.8368 14.9603H10.5796C9.77796 14.9603 9.12813 14.3105 9.12813 13.5089C9.12813 12.7073 9.77796 12.0575 10.5796 12.0575H12.031C12.8293 12.0575 13.4825 11.4043 13.4825 10.606C13.4825 9.00279 14.7821 7.70312 16.3854 7.70312C17.9819 7.70312 19.2882 6.39682 19.2882 4.80023C19.2882 4.51591 19.5762 4.32283 19.8338 4.4432C23.7956 6.29458 26.5455 10.3086 26.5455 14.9603C26.5455 16.6688 26.1736 18.289 25.5088 19.7472Z" fill="white"/>
</svg>
